<svg xmlns="http://www.w3.org/2000/svg" viewBox="0 0 245 58.02"><path d="M143.18,38.85H42.6c-.31,0-.44-.12-.48-.43,0-.1,0-.2,0-.3q0-6.74,0-13.48c0-.21,0-.41,0-.61a.41.41,0,0,1,.45-.39l.91,0H243.69c.42,0,.54.12.59.52,0,.1,0,.2,0,.3q0,6.57,0,13.12c0,.16,0,.32,0,.49a1.9,1.9,0,0,1,0,.41.4.4,0,0,1-.38.33H143.18ZM74.28,28.79c.08.11.15.16.16.22s0,.36,0,.54l-.15,5.2c0,.38.14.54.53.57a1.43,1.43,0,0,0,.36,0c.32,0,.43-.16.45-.46a4,4,0,0,0,0-.49V28.62c0-.28,0-.56,0-.85a.49.49,0,0,0-.5-.56c-.32,0-.64,0-1,0a.86.86,0,0,0-.94.69c-.19.44-.38.88-.58,1.32s-.43.91-.64,1.36-.31.7-.46,1.05-.34.82-.52,1.22A.4.4,0,0,1,71,33a.29.29,0,0,1-.53,0c-.18-.36-.33-.74-.49-1.1l-.72-1.59L68.65,29c-.18-.42-.34-.86-.54-1.27a.81.81,0,0,0-.76-.52c-.36,0-.72,0-1.08,0s-.53.18-.55.58c0,.06,0,.12,0,.18v6.65c0,.62.08.71.68.72h.18c.38,0,.5-.15.5-.53s0-.93,0-1.39L67,29.48A2.58,2.58,0,0,1,67,29c0-.09,0-.2.23-.17.16.31.35.64.5,1,.34.75.65,1.51,1,2.27s.82,1.83,1.22,2.75a.78.78,0,0,0,.7.49.67.67,0,0,0,.7-.36c.08-.14.15-.29.22-.44l.18-.44c.21-.44.43-.86.63-1.3.34-.77.67-1.55,1-2.32.11-.26.23-.51.35-.77A6,6,0,0,1,74.28,28.79Zm72.6,6.71a5.28,5.28,0,0,0,2.73-.68,4.38,4.38,0,0,0,2.13-2.51,3.65,3.65,0,0,0-.42-3.06,4.43,4.43,0,0,0-1.64-1.49,3.27,3.27,0,0,0-.68-.38,6.84,6.84,0,0,0-2.14-.34,5.36,5.36,0,0,0-3.27,1.07,3.86,3.86,0,0,0-1.69,3.35,3.6,3.6,0,0,0,.66,1.9,4.53,4.53,0,0,0,1.5,1.39,5.45,5.45,0,0,0,1.27.54A11.33,11.33,0,0,0,146.88,35.5Zm52.49-8.43a5.18,5.18,0,0,0-2.79.64,4.76,4.76,0,0,0-2,2,3.15,3.15,0,0,0-.37,1.81c0,.28.14.55.2.82a3.26,3.26,0,0,0,.8,1.47,5,5,0,0,0,3,1.61,5.6,5.6,0,0,0,4.21-.91,3.62,3.62,0,0,0,1.72-3.14c0-.1,0-.2,0-.3a3.09,3.09,0,0,0-.34-1.45,4.63,4.63,0,0,0-2.71-2.26A4.3,4.3,0,0,0,199.37,27.07Zm-97.46,4.24h0c0,1.08,0,2.17,0,3.26,0,.67.08.77.75.76h.06c.43,0,.57-.17.57-.61l-.06-4.41q0-.3,0-.6c0-.12,0-.26.11-.32s.27.06.35.16.33.41.49.62l2.88,3.72c.26.34.53.67.79,1a.91.91,0,0,0,.87.43c.1,0,.21,0,.31,0a.44.44,0,0,0,.48-.49c0-.16,0-.32,0-.48l0-6.47a1.53,1.53,0,0,0,0-.3.42.42,0,0,0-.45-.39c-.74-.07-.89.06-.89.82,0,1,0,1.93,0,2.9a14.79,14.79,0,0,0,0,1.63.73.73,0,0,1,0,.29A.32.32,0,0,1,108,33a.22.22,0,0,1-.21-.08c-.22-.28-.41-.59-.63-.88L104.76,29c-.36-.46-.73-.91-1.08-1.38a.91.91,0,0,0-.78-.38h-.54a.43.43,0,0,0-.44.42,1.93,1.93,0,0,0,0,.24Zm15.37,4h1.21a5.1,5.1,0,0,0,2.75-.77,3.44,3.44,0,0,0,1.8-2.64.5.5,0,0,1,0-.12,4,4,0,0,0-.47-2.5,3.9,3.9,0,0,0-1.83-1.6,5.52,5.52,0,0,0-1.51-.4,28.17,28.17,0,0,0-3.56-.09h-.06c-.37.05-.5.18-.52.55,0,.1,0,.2,0,.3v6.46c0,.14,0,.29,0,.43a.37.37,0,0,0,.3.34,1.93,1.93,0,0,0,.42,0ZM154.64,32a.52.52,0,0,1,.56.2,7.19,7.19,0,0,1,.51.59c.62.72,1.22,1.45,1.84,2.16a.91.91,0,0,0,.48.34,8.15,8.15,0,0,0,1.21,0c.11,0,.19-.19.12-.29a3.58,3.58,0,0,0-.3-.36c-.57-.63-1.15-1.25-1.7-1.89-.34-.39-.26-.61.24-.68a2.62,2.62,0,0,0,1.24-.6,2.3,2.3,0,0,0,.65-2.57,2.59,2.59,0,0,0-1.9-1.53,8.41,8.41,0,0,0-1.5-.17c-.75,0-1.49,0-2.24,0-.54,0-.67.15-.67.7,0,0,0,.08,0,.12,0,2.19,0,4.39,0,6.58,0,.64.09.74.72.74s.73-.1.72-.74,0-1.33,0-2C154.61,32.4,154.63,32.2,154.64,32Zm-67.31-.08c.23,0,.32.23.45.38.67.8,1.33,1.62,2,2.4s.49.63,1.32.63l.24,0c.19,0,.39,0,.46-.21s-.09-.29-.2-.41c-.57-.63-1.14-1.25-1.7-1.88a1.29,1.29,0,0,1-.16-.18.35.35,0,0,1,.2-.57l.23-.05a2.35,2.35,0,0,0,1.33-.78,2.06,2.06,0,0,0,.56-2.06,2.54,2.54,0,0,0-2-1.84,9.07,9.07,0,0,0-1.56-.16c-.66,0-1.33,0-2,0a2,2,0,0,0-.42,0,.44.44,0,0,0-.37.41,3.85,3.85,0,0,0,0,.48c0,2.1,0,4.19,0,6.29,0,.75-.06,1,1,.91h.06a.43.43,0,0,0,.42-.43c0-.1,0-.2,0-.3l0-2.23C87.1,32.18,87.11,32,87.33,31.91ZM161,31.27h0v3.44c0,.45.12.58.55.62h.12c.64,0,.78-.15.76-.79s0-1.36,0-2a1,1,0,0,1,0-.3c0-.09.1-.2.17-.22a.35.35,0,0,1,.26.09,1.72,1.72,0,0,1,.29.31c.65.76,1.29,1.54,2,2.29s.51.64,1.38.65a2,2,0,0,0,.42,0,.26.26,0,0,0,.16-.42L167,34.8l-1.77-2c-.39-.42-.32-.7.22-.77a2.31,2.31,0,0,0,1.3-.7,2.22,2.22,0,0,0,.14-3.15,2.46,2.46,0,0,0-1.5-.85,9.18,9.18,0,0,0-1.49-.16c-.71,0-1.41,0-2.12,0a1.47,1.47,0,0,0-.36,0,.44.44,0,0,0-.37.42,1.93,1.93,0,0,0,0,.24Zm25.1,0v2.3c0,.4,0,.81,0,1.21s.13.46.47.5h.25c.52,0,.74-.22.7-.72,0-.72,0-1.45,0-2.18a.55.55,0,0,1,.6-.59h.37c.8,0,1.61,0,2.42,0,.43,0,.67.1.66.63,0,.08,0,.16,0,.24,0,.66,0,1.33,0,2a1.56,1.56,0,0,0,0,.31.35.35,0,0,0,.31.32h.24c.71,0,.81,0,.81-.77V28a3,3,0,0,0,0-.42.42.42,0,0,0-.4-.39,3.25,3.25,0,0,0-.54,0,.4.4,0,0,0-.4.38,3,3,0,0,0,0,.43c0,.58,0,1.16,0,1.75a4.89,4.89,0,0,1,0,.54.35.35,0,0,1-.36.34h-2.91c-.61,0-.76-.14-.74-.74s0-1.33,0-2-.17-.71-.67-.72-.76.17-.75.74C186.13,29.06,186.12,30.19,186.12,31.31Zm47.67,4h0c.1,0,.2,0,.3,0,.34,0,.48-.23.34-.53s-.21-.39-.3-.59c-.35-.74-.68-1.5-1-2.24s-.71-1.44-1-2.17-.66-1.42-1-2.13a.72.72,0,0,0-.47-.43,1.11,1.11,0,0,0-1.52.69c-.19.42-.37.85-.56,1.27L228,30.34l-.63,1.3c-.2.44-.38.88-.59,1.32-.31.65-.64,1.29-1,1.94-.09.17,0,.37.15.38a4.5,4.5,0,0,0,.9,0,.62.62,0,0,0,.37-.29c.19-.32.33-.68.51-1s.24-.46.37-.68a.69.69,0,0,1,.71-.35,21.71,21.71,0,0,0,2.42,0,1,1,0,0,1,1.08.69c.18.42.36.85.55,1.27a.7.7,0,0,0,.61.43Zm-149.45,0h.24c.38,0,.5-.23.33-.57L84.52,34c-.36-.72-.72-1.44-1.07-2.16-.49-1-1-2.08-1.44-3.12l-.42-.87c-.12-.23-.26-.5-.52-.56-.68-.13-1.14-.11-1.44.62-.06.14-.11.3-.18.44-.36.75-.73,1.48-1.08,2.23s-.68,1.5-1,2.25l-.47,1c-.18.37-.37.75-.55,1.13a.29.29,0,0,0,.26.43H77a.8.8,0,0,0,.84-.56c.17-.43.36-.85.56-1.27a.88.88,0,0,1,.85-.56H82a.56.56,0,0,1,.52.24,2.7,2.7,0,0,1,.33.5,10.7,10.7,0,0,1,.52,1.15.69.69,0,0,0,.74.5Zm84.45-4h0v3.38a1.62,1.62,0,0,0,0,.31.35.35,0,0,0,.31.31,1.51,1.51,0,0,0,.3,0h4.12a.38.38,0,0,0,.34-.37,1.92,1.92,0,0,0,0-.24c0-.45-.16-.57-.6-.57l-2.18,0a2.58,2.58,0,0,1-.48,0,.4.4,0,0,1-.39-.4c0-.5,0-1,0-1.51a.42.42,0,0,1,.37-.41,2,2,0,0,1,.42-.06l2.06,0a2,2,0,0,0,.42,0,.46.46,0,0,0,.25-.15.71.71,0,0,0,.06-.74c-.09-.2-.3-.17-.48-.18h-2.66c-.36-.05-.46-.17-.46-.52s0-.8,0-1.2c0-.6.11-.71.69-.74h2.24l.42,0a.27.27,0,0,0,.26-.22,1.63,1.63,0,0,0,0-.54.33.33,0,0,0-.31-.25h-4.18c-.41,0-.53.14-.55.55a1.08,1.08,0,0,0,0,.18Zm-44.33-.06v3.5c0,.4.14.54.54.57h3.81a1.93,1.93,0,0,0,.42,0,.41.41,0,0,0,.35-.43,1.94,1.94,0,0,0,0-.24.46.46,0,0,0-.43-.44,4.87,4.87,0,0,0-.54,0h-2.24c-.34,0-.45-.1-.46-.42,0-.51,0-1,0-1.51s.19-.48.56-.48l2.24.05a2,2,0,0,0,.42,0,.55.55,0,0,0,.47-.66.34.34,0,0,0-.29-.34,4,4,0,0,0-.6-.05h-2.36c-.36,0-.47-.13-.47-.48s0-.93,0-1.39c0-.1,0-.2,0-.3a.34.34,0,0,1,.28-.28,2.17,2.17,0,0,1,.36,0h2.61q.41-.06.42-.42a.48.48,0,0,0-.36-.56,2.47,2.47,0,0,0-.54,0h-3.39a3,3,0,0,0-.42,0,.42.42,0,0,0-.38.34,1.46,1.46,0,0,0,0,.36Zm10.77,0v1.09c0,.81,0,1.61,0,2.42,0,.42.12.52.54.56h.12c.7,0,.82-.27.78-.77a17.75,17.75,0,0,1,0-1.93c0-.47.12-.57.57-.6H138a3.88,3.88,0,0,0,2-.47,2.22,2.22,0,0,0,1-1.09,2.15,2.15,0,0,0-.54-2.49,2.27,2.27,0,0,0-1.21-.64,19.73,19.73,0,0,0-3.26-.15c-.75,0-.77.28-.77.8C135.24,29.08,135.23,30.17,135.23,31.25Zm76.91,0h0c0,1.09,0,2.18,0,3.26s.32.87,1,.83c.24,0,.35-.15.37-.4s0-.32,0-.48V32.69c0-.54.11-.64.64-.66h.78a4.52,4.52,0,0,0,1.76-.37,2.62,2.62,0,0,0,1.25-1.25,1.79,1.79,0,0,0,0-1.58,2.43,2.43,0,0,0-2.09-1.51l-.36-.06a21.57,21.57,0,0,0-2.9-.06c-.27,0-.39.14-.43.41a1.51,1.51,0,0,0,0,.3C212.14,29,212.14,30.12,212.14,31.23Zm-4.28,4.26.95-.13a1.76,1.76,0,0,0,.41-.1A2.55,2.55,0,0,0,210.81,33a2,2,0,0,0-.11-.83A2.46,2.46,0,0,0,209,30.69l-1.51-.43a1,1,0,0,1-.76-.71,1.11,1.11,0,0,1,1-1.38,1.45,1.45,0,0,1,1.54.72.53.53,0,0,0,.06.1,1,1,0,0,0,1,.13.64.64,0,0,0,.17-.36.35.35,0,0,0-.05-.24,2.17,2.17,0,0,0-1-1.14,3.1,3.1,0,0,0-2.41-.17,2.52,2.52,0,0,0-.77.34,2.24,2.24,0,0,0-.89,1.95,1.69,1.69,0,0,0,.35.94,3.16,3.16,0,0,0,1.79,1.06c.43.11.84.27,1.26.42a1,1,0,0,1,.69,1,1.29,1.29,0,0,1-.77,1.3,1.69,1.69,0,0,1-2.32-.75,1.15,1.15,0,0,0-.14-.27.82.82,0,0,0-1-.08.36.36,0,0,0-.09.22.93.93,0,0,0,0,.41,3,3,0,0,0,1,1.23A3.29,3.29,0,0,0,207.86,35.49Zm-158.07,0c.32,0,.64-.07,1-.13a2.51,2.51,0,0,0,2-2,2.24,2.24,0,0,0-1.63-2.66c-.51-.19-1-.32-1.56-.46a1.13,1.13,0,0,1-.65-.41,1.07,1.07,0,0,1,.47-1.63,2.31,2.31,0,0,1,1.14,0c.3.06.44.32.62.54a1.71,1.71,0,0,0,.11.14.9.9,0,0,0,1,.25.34.34,0,0,0,.22-.39,2.09,2.09,0,0,0-1-1.36,3.09,3.09,0,0,0-2.11-.28,2.51,2.51,0,0,0-1.39.66,2.63,2.63,0,0,0-.52.88,1.85,1.85,0,0,0,.46,2,3.46,3.46,0,0,0,1.55.78,8.86,8.86,0,0,1,1.31.46,1.22,1.22,0,0,1,.35,1.93,1.73,1.73,0,0,1-1.07.5A1.69,1.69,0,0,1,49,34.14a1.23,1.23,0,0,1-.6-.72.7.7,0,0,0-.65-.46c-.45-.06-.7.19-.63.63a1.38,1.38,0,0,0,.11.41,2.54,2.54,0,0,0,1.57,1.32A6.58,6.58,0,0,0,49.79,35.49Zm129.77-6.32c.22,0,.44,0,.66,0a.35.35,0,0,0,.36-.34.68.68,0,0,0,0-.35,2.23,2.23,0,0,0-1-1.15,3.1,3.1,0,0,0-2.41-.17,2.63,2.63,0,0,0-.82.37,2.25,2.25,0,0,0-.84,1.67,1.77,1.77,0,0,0,.59,1.46,3.2,3.2,0,0,0,1.6.8c.46.1.87.31,1.31.45a.71.71,0,0,1,.42.41,1.28,1.28,0,0,1-.72,1.86,1.67,1.67,0,0,1-2.18-.75,1.57,1.57,0,0,1-.09-.23.49.49,0,0,0-.48-.3h-.3c-.29,0-.41.14-.41.42a.92.92,0,0,0,.08.47,2.65,2.65,0,0,0,2,1.55,4.52,4.52,0,0,0,1.68,0,2.69,2.69,0,0,0,1.34-.76,2.37,2.37,0,0,0,.58-1.31,2,2,0,0,0-.66-2,2.56,2.56,0,0,0-1.11-.6c-.49-.12-1-.28-1.45-.41a1.06,1.06,0,0,1,.15-2.09h.61a.76.76,0,0,1,.63.29Zm55.68,2.11v3.2c0,.17,0,.33,0,.49a.36.36,0,0,0,.3.33,1.53,1.53,0,0,0,.3,0h3.27a2.11,2.11,0,0,0,.36,0,.42.42,0,0,0,.38-.47c0-.44-.16-.63-.59-.67H237.4c-.78,0-.8,0-.8-.83V28.14c0-.15,0-.29,0-.43,0-.39-.14-.5-.52-.52a3,3,0,0,0-.42,0,.4.4,0,0,0-.4.38,4,4,0,0,0,0,.49ZM96,31.76V29c0-.14,0-.28,0-.42a.4.4,0,0,1,.39-.39c.11,0,.24,0,.36,0h.66a.35.35,0,0,0,.3-.18.55.55,0,0,0-.44-.84H93.59a1.29,1.29,0,0,0-.48.06.59.59,0,0,0-.31.25.46.46,0,0,0,.36.71c.28,0,.57,0,.85,0,.46,0,.59.16.62.63a.49.49,0,0,1,0,.12c0,1.79,0,3.58,0,5.37,0,.14,0,.28,0,.42a.47.47,0,0,0,.49.55,4,4,0,0,0,.49,0A.4.4,0,0,0,96,34.9c0-.14,0-.29,0-.43Zm127.5,0v.36c0,.88,0,1.77,0,2.66,0,.36.14.51.5.54a2.57,2.57,0,0,0,.48,0,.4.4,0,0,0,.4-.38,1.92,1.92,0,0,0,0-.24c0-1.88,0-3.75,0-5.63,0-.14,0-.28,0-.42s.14-.39.43-.41h.42c.2,0,.41,0,.61,0a.43.43,0,0,0,.36-.42.54.54,0,0,0-.42-.57,1.46,1.46,0,0,0-.36,0h-3.45a1.91,1.91,0,0,0-.48.06.49.49,0,0,0-.36.56.43.43,0,0,0,.44.41c.22,0,.44,0,.67,0,.69,0,.79.11.79.82C223.5,30,223.5,30.86,223.5,31.77Zm-169.07,1h0v1.93c0,.47.1.57.55.61h.36a.47.47,0,0,0,.45-.48,1.92,1.92,0,0,0,0-.24c0-.8,0-1.61,0-2.41,0-.48,0-1,0-1.45,0-.32.1-.43.41-.5a2.93,2.93,0,0,0,.29,0,.38.38,0,0,0,.33-.38c0-.36,0-.63-.5-.66h-.11a.48.48,0,0,1-.42-.52c0-.24,0-.48,0-.72,0-.52-.21-.73-.74-.71l-.12,0a.49.49,0,0,0-.51.54c0,.12,0,.25,0,.37a4.87,4.87,0,0,1,0,.54.47.47,0,0,1-.44.49,1.79,1.79,0,0,0-.23,0,.46.46,0,0,0-.2.13.58.58,0,0,0,.34.93l.18,0a.37.37,0,0,1,.34.36,3,3,0,0,1,0,.42Zm166.19-1.47h0V28c0-.73-.12-.85-.84-.8-.39,0-.54.18-.58.56,0,.08,0,.16,0,.24v6.47c0,.14,0,.28,0,.42a.4.4,0,0,0,.36.42,3.47,3.47,0,0,0,.72,0,.34.34,0,0,0,.32-.32,1.48,1.48,0,0,0,0-.3Zm-120.39,0v-3.2c0-.14,0-.29,0-.43a.46.46,0,0,0-.49-.49h-.18c-.65,0-.78.14-.77.78v6.52c0,.14,0,.29,0,.43a.38.38,0,0,0,.34.37,4.29,4.29,0,0,0,.72,0c.23,0,.35-.15.38-.39s0-.28,0-.42ZM59.09,34a2.17,2.17,0,0,0-.37,0,.44.44,0,0,0-.38.47c0,.29-.1.64.27.79a1.12,1.12,0,0,0,.88,0,.35.35,0,0,0,.16-.16,1.19,1.19,0,0,0,0-.83.58.58,0,0,0-.27-.21A.86.86,0,0,0,59.09,34Z" fill="#009fa8"/><path d="M13.08,27.47V16.59c0-.2,0-.41,0-.61a.38.38,0,0,0-.36-.34,2.29,2.29,0,0,0-.37,0l-4.17,0H8c-.42,0-.57-.2-.57-.62l0-4.65a1.93,1.93,0,0,1,0-.24.4.4,0,0,1,.37-.41,3.2,3.2,0,0,1,.54,0h4.05c.66,0,.69,0,.69-.68V2.43a4.87,4.87,0,0,1,0-.54.44.44,0,0,1,.46-.4H18.1c.66,0,.77.11.77.78V9a1.93,1.93,0,0,0,0,.24c0,.32.12.44.43.47.14,0,.28,0,.43,0h3.87a3.85,3.85,0,0,1,.48,0,.38.38,0,0,1,.38.39c0,.16,0,.32,0,.48,0,1.45,0,2.91,0,4.36,0,.6-.1.71-.68.7H19.3a.44.44,0,0,0-.41.38,4.1,4.1,0,0,0,0,.61V38.39a4.87,4.87,0,0,1,0,.54.41.41,0,0,1-.39.39,3.1,3.1,0,0,1-.43,0H13.68c-.42,0-.56-.12-.59-.52a4.87,4.87,0,0,1,0-.54Z" fill="#e5006e"/><path d="M29.27,39.12h-8.9c-.33,0-.43-.13-.45-.44,0,0,0,0,0-.06,0-.55,0-1.09,0-1.63s.11-.53.52-.59l.3,0a.71.71,0,0,0,.6-.61,3,3,0,0,0,.05-.6c0-1,0-1.89,0-2.84V24.86c0-.34,0-.68,0-1s-.22-.42-.51-.31-.29.14-.44.19a.24.24,0,0,1-.32-.18,1.53,1.53,0,0,1,0-.3c0-.68,0-1.37,0-2a1,1,0,0,1,.61-1,23.46,23.46,0,0,0,2.66-1.53,1,1,0,0,1,.56-.19c.21,0,.41,0,.61,0s.6,0,.8.31.3.17.48,0a3.3,3.3,0,0,1,2.85-.27,2.32,2.32,0,0,1,1.12.89c.07.1.13.21.2.3a.34.34,0,0,0,.53.09,2.7,2.7,0,0,0,.31-.28,4,4,0,0,1,1.39-.94,3.13,3.13,0,0,1,2.95.21,3.71,3.71,0,0,1,1.53,1.81,10.36,10.36,0,0,1,.81,4.11c0,3,0,6,0,9,0,.62.07,1.25.06,1.87a.86.86,0,0,0,.43.75l.21.12a.63.63,0,0,1,.41.72c0,.42,0,.84,0,1.26v.25a.35.35,0,0,1-.34.36,4,4,0,0,1-.6,0Zm-4-9.12c0,1.55,0,3.1,0,4.65,0,.32,0,.64.06,1a.9.9,0,0,0,.87.78,2,2,0,0,0,.59-.07c.43-.12.53-.24.56-.68,0-.68.07-1.36.07-2,0-2.48,0-5,0-7.43,0-.76-.07-1.52-.11-2.29a1.56,1.56,0,0,0-.44-1,.43.43,0,0,0-.6-.08,1.76,1.76,0,0,0-.53.56,4.17,4.17,0,0,0-.48,1.85C25.31,26.82,25.29,28.41,25.29,30Zm8.33.38c0-1.43,0-2.86,0-4.29a12.42,12.42,0,0,0-.29-2.57,2.07,2.07,0,0,0-.13-.4.52.52,0,0,0-.77-.22,1.08,1.08,0,0,0-.35.32,2.89,2.89,0,0,0-.5,1.15c0,.36-.08.72-.09,1.08V34c0,.55,0,1.09.08,1.63s.18.66.7.72a2.3,2.3,0,0,0,.37,0,.86.86,0,0,0,.94-.88,9.93,9.93,0,0,0,0-1.09C33.63,33,33.62,31.71,33.62,30.38Z" fill="#e5006e"/><path d="M155.21,7.27c0-.28.13-.39.31-.5a11.36,11.36,0,0,0,2.83-2.43A6.08,6.08,0,0,0,159.2,3a1.3,1.3,0,0,1,.14-.26.25.25,0,0,1,.37-.09,9,9,0,0,0,1.64.74,1.45,1.45,0,0,1,.54.37c.12.15.1.36-.07.4a6.87,6.87,0,0,0-1.68.93c-.23.13-.45.28-.67.42a.24.24,0,0,0-.12.31.44.44,0,0,0,.22.18.63.63,0,0,0,.24,0l3.33,0h.06c.42,0,.56-.17.56-.61,0-.8,0-1.61,0-2.42V2.94c0-.52-.12-.61-.66-.61-.79,0-1.57,0-2.36,0-.32,0-.64,0-1,0s-.56,0-.84,0a24.33,24.33,0,0,0-3,.1,1.29,1.29,0,0,1-.48,0,.79.79,0,0,1-.34-.23.31.31,0,0,1,.2-.51,1.51,1.51,0,0,1,.3,0l7.33,0c2.58,0,5.16,0,7.75,0a1.25,1.25,0,0,0,1.13-.54c.28-.39.61-.75.93-1.15h.39l.52.46c.43.4.86.79,1.28,1.2a.67.67,0,0,1,.12.2.31.31,0,0,1-.22.42,1.43,1.43,0,0,1-.36,0c-1.83,0-3.67,0-5.51,0h-2.18c-.44,0-.63.16-.64.61,0,.85,0,1.7,0,2.54,0,.36.17.51.52.54H167c1.11,0,2.22,0,3.33,0a1.44,1.44,0,0,0,1.33-.86.34.34,0,0,0-.13-.48,6.75,6.75,0,0,0-2.07-1,1.23,1.23,0,0,1-.48-.22.22.22,0,0,1,.06-.39,1.42,1.42,0,0,1,.41-.08,10.55,10.55,0,0,1,2.17.19,10.26,10.26,0,0,1,1.95.61,4,4,0,0,1,1.78,1.3,1.73,1.73,0,0,1,.29,1.09.91.91,0,0,1-.88.91h-.3a.9.9,0,0,0-.93,1c0,.18,0,.36,0,.54v8.59c0,.2,0,.4,0,.6a1.6,1.6,0,0,1-1.16,1.53c-.19.07-.36.17-.55.24a2.47,2.47,0,0,1-.47.11.59.59,0,0,1-.65-.34l-.12-.28a1.8,1.8,0,0,0-1-1.05,1.05,1.05,0,0,1-.31-.18.37.37,0,0,1-.09-.27c0-.05.12-.11.18-.12s.41,0,.61,0,.47-.08.71-.13a.61.61,0,0,0,.47-.49,2,2,0,0,0,.07-.48c0-1,0-1.93,0-2.9a3.11,3.11,0,0,0-.08-.49,2.71,2.71,0,0,0-1.24,1,.31.31,0,0,0,0,.44,4.47,4.47,0,0,0,.35.41,1.37,1.37,0,0,1,.2,1.32.76.76,0,0,1-.85.43.92.92,0,0,1-.74-.46,2,2,0,0,0-.19-.31.49.49,0,0,0-.68-.19c-.17.08-.31.2-.47.27A2.32,2.32,0,0,1,167,16a.18.18,0,0,1-.17-.25,1,1,0,0,1,.17-.24c.16-.21.34-.4.5-.61.31-.4.3-.63-.08-1-.15-.14-.31-.25-.47-.38l-.26-.21c0-.18.11-.25.24-.24a3.81,3.81,0,0,1,.59.08,2.67,2.67,0,0,1,.4.13.4.4,0,0,0,.53-.18c.1-.17.17-.36.26-.54a.63.63,0,0,1,.89-.36c.49.19,1,.4,1.48.61a1.73,1.73,0,0,0,.1-.37c0-.86,0-1.73,0-2.6s0-1.57,0-2.35c0-.1,0-.2,0-.3a.53.53,0,0,0-.43-.52,2.41,2.41,0,0,0-.54,0h-3.45c-.43,0-.58.15-.61.58,0,.12,0,.24,0,.36.06,1.08,0,2.17,0,3.26a10.73,10.73,0,0,1,0,1.5,4.89,4.89,0,0,0,0,.54c0,.22,0,.44,0,.66,0,.81,0,1.61,0,2.41a2.23,2.23,0,0,1,0,.36,14.05,14.05,0,0,0-.07,2.05v.13a1,1,0,0,1-.93,1.12,1.74,1.74,0,0,1-.6,0c-.6-.12-.89-.37-.89-1V14.14a1,1,0,0,0-.16-.66,1,1,0,0,0-.26.13c-.23.23-.46.45-.67.7a.61.61,0,0,0,0,.87,1.69,1.69,0,0,1,.36,1.07.82.82,0,0,1-1.11.74,1,1,0,0,1-.59-.5,1.35,1.35,0,0,0-.15-.26.25.25,0,0,0-.32-.07l-.86.44a.51.51,0,0,1-.59,0,1.24,1.24,0,0,1,.1-.2c.26-.36.54-.71.8-1.07a.66.66,0,0,0-.06-1c-.17-.18-.36-.33-.54-.5a.22.22,0,0,1-.06-.27.48.48,0,0,1,.25-.14,1.56,1.56,0,0,1,.8.24c.31.15.49.08.61-.24.05-.15.08-.31.13-.46a.38.38,0,0,1,.41-.29,3.53,3.53,0,0,1,.65.11c.36.12.72.26,1.11.41a2.29,2.29,0,0,0,.16-.31.47.47,0,0,0,0-.17c0-1,.12-1.93,0-2.9a7.08,7.08,0,0,1,0-1,4.72,4.72,0,0,0,0-.84,3.29,3.29,0,0,1,0-.54,1.87,1.87,0,0,0,0-.41.39.39,0,0,0-.35-.36l-.37,0h-3.45a1.54,1.54,0,0,0-.3,0,.45.45,0,0,0-.39.46c0,1.43,0,2.87,0,4.3a.55.55,0,0,0,0,.17.21.21,0,0,0,.3.11.67.67,0,0,0,.18-.16c.31-.44.61-.89.92-1.34a2.14,2.14,0,0,0,.1-.22.66.66,0,0,0-.25-.9c-.16-.13-.33-.24-.49-.36s-.07-.12,0-.16a.33.33,0,0,1,.16-.15.44.44,0,0,1,.23,0c.1,0,.2,0,.3.05l.3,0a.48.48,0,0,0,.58-.4c.05-.15.07-.32.11-.47a.43.43,0,0,1,.4-.32,1.49,1.49,0,0,1,.42,0c.3.05.59.12.89.19s.45.32.18.66-.36.43-.53.65a1.53,1.53,0,0,0-.14.21.45.45,0,0,0,.13.59,1.93,1.93,0,0,1,.51.81,1,1,0,0,1-.08.92.83.83,0,0,1-1.38.07c-.13-.15-.26-.31-.4-.45a.31.31,0,0,0-.44,0l-.12.13a3.17,3.17,0,0,1-1.25.82c-.62.22-.62.23-.62.86v5.75c0,.16,0,.32,0,.48a.8.8,0,0,1-.61.79,1.77,1.77,0,0,1-1.3,0,.56.56,0,0,1-.37-.5,5.15,5.15,0,0,1,0-.55c0-3.65,0-7.3,0-10.94a3.1,3.1,0,0,0,0-.43c0-.25-.16-.35-.41-.3l-.65.16A2.62,2.62,0,0,1,155.21,7.27Z" fill="#009fa8"/><path d="M95,10.82a.46.46,0,0,0-.47-.24h-1l-1,0a1.28,1.28,0,0,0-.9.27c-.55.41-1.11.81-1.69,1.17s-1.12.63-1.69.93a1.25,1.25,0,0,1-.39,0,1.23,1.23,0,0,1,.13-.24l1.38-1.18A7.27,7.27,0,0,0,90,11c0-.05.06-.13.09-.18a.34.34,0,0,0-.4-.14c-.2,0-.39.1-.59.12a.52.52,0,0,1-.6-.59.33.33,0,0,1,.4-.34l1,.16c.2,0,.4,0,.6,0a1,1,0,0,0,.81-.33l.48-.54.83-1a2.2,2.2,0,0,0,.2-.23.22.22,0,0,0-.15-.36l-.24,0-3.27,0c-.24,0-.48.07-.72.08a1.58,1.58,0,0,1-.53-.07.49.49,0,0,1-.24-.25.34.34,0,0,1,.33-.5c.2,0,.41,0,.61.06A15.11,15.11,0,0,0,90.84,7c.35,0,.49-.12.51-.47s0-1,0-1.51a4,4,0,0,0,0-.49.4.4,0,0,0-.44-.4c-.34,0-.68,0-1,0s-.56,0-.85.06a.57.57,0,0,1-.5-.28.34.34,0,0,1,.29-.55c.22,0,.44,0,.66,0,.46,0,.93.06,1.39.07a.42.42,0,0,0,.46-.39,2,2,0,0,0,0-.42c0-.64,0-1.29,0-1.93,0-.24,0-.48.06-.75A6.59,6.59,0,0,1,92.6,0a.14.14,0,0,1,.11,0c.22.3.58.23.88.32a4.39,4.39,0,0,1,.52.13.35.35,0,0,1,.13.52.34.34,0,0,1-.08.09c-.52.39-.33.94-.3,1.45,0,.05.1.13.17.14a.27.27,0,0,0,.21-.09,3,3,0,0,0,.2-.29.48.48,0,0,1,.7-.11c.14.11.26.25.4.36A.29.29,0,0,0,96,2.5a2.92,2.92,0,0,0,.4-1c.09-.54.29-.67.78-.47a12.88,12.88,0,0,1,1.71.61l.22.1a.27.27,0,0,1,.08.41.41.41,0,0,1-.12.14,2.12,2.12,0,0,0-.91,1.09,24.15,24.15,0,0,1-2,3,1.15,1.15,0,0,0-.2.36s0,.12.06.15a.2.2,0,0,0,.17,0,1,1,0,0,0,.21-.21c.25-.29.47-.6.73-.88s.43-.28.73,0a6.65,6.65,0,0,1,.61.58c.26.26.5.23.67-.1a1.47,1.47,0,0,0,.1-.22c.14-.48.31-1,.42-1.45.16-.68.31-1.37.42-2.07a11.57,11.57,0,0,0,.13-1.32,2.52,2.52,0,0,1,.3-1.14h.63c.08,0,.19,0,.22.07.18.29.49.26.75.3a3.37,3.37,0,0,1,1.16.34,2.15,2.15,0,0,1,.24.18.27.27,0,0,1,0,.42,1.69,1.69,0,0,1-.36.23.86.86,0,0,0-.47.58A8.9,8.9,0,0,1,102,3.92c-.17.34-.34.68-.5,1a1.65,1.65,0,0,0-.23.71,1,1,0,0,0,.31.14c.78,0,1.57,0,2.36,0a.55.55,0,0,0,.42-.2l.82-.89c.11-.12.21-.24.33-.35a.61.61,0,0,1,.78-.06A8.59,8.59,0,0,1,108,5.86c.18.22.08.44-.21.47s-.4,0-.61,0a4.89,4.89,0,0,0-.54,0c-.35,0-.47.14-.48.5a23,23,0,0,1-.49,3.1c0,.26-.13.51-.2.76s-.11.3-.15.46a11.51,11.51,0,0,1-1.11,2.66c-.19.35-.18.54.12.8a10.8,10.8,0,0,0,2.58,1.86,3.64,3.64,0,0,0,.88.39A.43.43,0,0,1,108,17a.32.32,0,0,1,.07.39.69.69,0,0,1-.17.17,4.49,4.49,0,0,0-1.34,1.37c-.28.38-.39.4-.79.15a10.35,10.35,0,0,1-3-2.53c-.24-.32-.42-.33-.75-.06s-.71.6-1.09.87a10.56,10.56,0,0,1-2.2,1.24,13.75,13.75,0,0,1-1.73.53,1.54,1.54,0,0,1-.3,0c-.09,0-.17-.13-.15-.22a.54.54,0,0,1,.3-.36c.23-.13.46-.25.68-.39A12.76,12.76,0,0,0,101.09,15l.18-.25a.5.5,0,0,0,0-.46c-.19-.48-.38-1-.56-1.46a4.56,4.56,0,0,1-.13-.53c0-.15-.05-.32-.1-.47a11.37,11.37,0,0,1-.39-2.26c0-.42-.08-.84-.13-1.26s-.26-.4-.51-.21a3,3,0,0,0-.25.25c-.34.32-.67.65-1,.95s-.45.25-.53.13,0-.35.1-.5.33-.5.5-.75a.84.84,0,0,0,.13-.27.19.19,0,0,0-.13-.23,1,1,0,0,0-.3,0c-.81,0-1.62,0-2.42,0a.93.93,0,0,0-.75.32c-.45.49-.91,1-1.37,1.44a2.18,2.18,0,0,0-.21.22c-.08.09-.18.21-.09.32a.51.51,0,0,0,.32.13,10.84,10.84,0,0,0,1.14,0,2.29,2.29,0,0,0,.63-.19,3,3,0,0,0,.53-.29.71.71,0,0,1,.89,0c.52.34,1,.71,1.51,1.1l.18.16c.28.32.1.6-.19.62a4.49,4.49,0,0,0-1.21.38,3.5,3.5,0,0,0-1.3,1,.85.85,0,0,0-.17.25.27.27,0,0,0,.24.39,1.26,1.26,0,0,0,.47-.08c.76-.29,1.58-.31,2.35-.57a.25.25,0,0,1,.21.07.21.21,0,0,1,0,.28.9.9,0,0,1-.47.36,12.9,12.9,0,0,1-1.36.48,9,9,0,0,0-1.13.42.48.48,0,0,0-.3.36,4.17,4.17,0,0,0-.08.59c0,.81,0,1.62,0,2.42a2,2,0,0,1-1.32,2,5,5,0,0,1-1.22.34c-.42.08-.58,0-.63-.43a1.54,1.54,0,0,0-.83-1.19l-.1-.06c-.24-.16-.34-.33-.26-.49s.25-.17.41-.18c.32,0,.65,0,1-.05s.55-.19.57-.57,0-.81,0-1.21-.16-.4-.43-.35a.48.48,0,0,0-.17.05,20.47,20.47,0,0,0-2.13.84c-.14.07-.25.2-.39.29a.37.37,0,0,1-.57-.12c-.27-.49-.52-1-.78-1.5a.85.85,0,0,1,0-.23.38.38,0,0,1,.33-.44c.34-.05.68-.08,1-.12.8-.09,1.61-.16,2.41-.28s.77-.18.77-.88q0-.42,0-.84a1.42,1.42,0,0,1,0-.36.33.33,0,0,1,.4-.27l.42.08a.67.67,0,0,0,.65-.24C94.7,11.29,94.86,11.05,95,10.82Zm7.17-4.43h-1c-.41,0-.59.21-.66.62a1.12,1.12,0,0,0,0,.36A15.8,15.8,0,0,0,101,9.25a10.09,10.09,0,0,0,1.12,2.51,1.66,1.66,0,0,0,.25.34.21.21,0,0,0,.38-.06c.16-.43.3-.87.43-1.31s.17-.66.24-1,.11-.43.14-.65c.09-.66.16-1.32.23-2a1.45,1.45,0,0,0,0-.36.3.3,0,0,0-.24-.31,2.7,2.7,0,0,0-.41-.05ZM93.82,5.14h0c0,.22,0,.44,0,.66A.3.3,0,0,0,94,6c.13.06.23,0,.3-.14L95,4.73a.37.37,0,0,0,.07-.16.32.32,0,0,0-.28-.43,3.25,3.25,0,0,0-.54,0,.44.44,0,0,0-.45.46C93.81,4.78,93.82,5,93.82,5.14Z" fill="#009fa8"/><path d="M0,39.26A9.54,9.54,0,0,1,0,38a14.15,14.15,0,0,0,2.76-1,4.39,4.39,0,0,0,2.07-1.88,6.67,6.67,0,0,0,.64-1.62,1.13,1.13,0,0,1,0-.18A9.07,9.07,0,0,0,5.4,29a20.09,20.09,0,0,0-.62-2.14c-.19-.62-.38-1.23-.59-1.84-.14-.42-.31-.83-.48-1.23s-.42-1-.63-1.44l-.47-1.17c-.26-.68-.54-1.34-.78-2S1.45,18,1.27,17.39.84,16,.64,15.31c-.12-.45-.2-.9-.29-1.36a1,1,0,0,0-.27-.65A.39.39,0,0,1,0,13c0-1,0-2,0-3,0-.1,0-.23.07-.28a.79.79,0,0,0,.28-.58A5.82,5.82,0,0,1,.94,7.51,7.94,7.94,0,0,1,2.57,5.05,10.43,10.43,0,0,1,4.81,3.33,13.38,13.38,0,0,1,7,2.27a8.93,8.93,0,0,1,2.17-.52c.45,0,.64.12.69.56a3.37,3.37,0,0,1,0,.55.38.38,0,0,1-.33.43,1.59,1.59,0,0,1-.48.07A3.18,3.18,0,0,0,7.42,4,7,7,0,0,0,4.74,7a6.41,6.41,0,0,0-.57,3.12,11.52,11.52,0,0,0,.35,2.32c.18.7.43,1.38.6,2.08a11.52,11.52,0,0,0,.6,1.57c.18.43.37.85.56,1.27L7,19c.21.48.39,1,.61,1.45s.36.85.53,1.28c.27.71.53,1.42.79,2.14s.39,1.52.6,2.28a8.56,8.56,0,0,1,.19,1.25,11.29,11.29,0,0,1-.07,3.48,2.29,2.29,0,0,1-.07.36c-.12.4-.23.81-.38,1.2a8.92,8.92,0,0,1-1.39,2.46,13.38,13.38,0,0,1-2.92,2.7,12.23,12.23,0,0,1-2.25,1.15,14.07,14.07,0,0,1-1.79.52A1.28,1.28,0,0,1,0,39.26Z" fill="#e5006e"/><path d="M212.85,8.67a2.67,2.67,0,0,0-.28-.41,4,4,0,0,1-.81-1.32l-.08-.17a.39.39,0,0,0-.43-.25,3.39,3.39,0,0,1-.54.05.76.76,0,0,1-.39-.13.31.31,0,0,1,.07-.54,1.18,1.18,0,0,1,.41-.07l1.82,0c1,0,1.94,0,2.9,0a1.19,1.19,0,0,0,.93-.37,1.61,1.61,0,0,0,.12-.23,1.21,1.21,0,0,0-.23-.18c-.11,0-.24-.06-.35-.1a1.47,1.47,0,0,1-1-1,3,3,0,0,1-.13-.89c0-.28,0-.56,0-.84a.43.43,0,0,0-.38-.42,2.89,2.89,0,0,0-.72,0,.34.34,0,0,0-.3.26,1.15,1.15,0,0,0-.07.35,2.75,2.75,0,0,1-1.47,2.22,12.51,12.51,0,0,1-1.63.64,1.27,1.27,0,0,1-.4,0A1.31,1.31,0,0,1,210,5a5.16,5.16,0,0,1,.48-.46,2.54,2.54,0,0,0,.86-1.74c0-.51,0-1,0-1.51a4,4,0,0,1,0-.49.35.35,0,0,1,.52-.31,13.29,13.29,0,0,1,1.22.54,2.32,2.32,0,0,0,1.3.14.84.84,0,0,0,.42-.21,1,1,0,0,1,1.34,0l.55.37c.34.27.38.41.19.83a1.05,1.05,0,0,0,0,.76.47.47,0,0,0,.43.37,1.48,1.48,0,0,0,1-.29,1.59,1.59,0,0,0,.27-.39,3.46,3.46,0,0,1,.29-.45.25.25,0,0,1,.43.11s0,0,0,.06a1.43,1.43,0,0,0,.6,1.13.53.53,0,0,1,.06.81,1,1,0,0,1-.4.35,3.08,3.08,0,0,1-1.33.37,1.21,1.21,0,0,0-.7.14.17.17,0,0,0,0,.26c.08.06.17.1.26.16a10.77,10.77,0,0,1,.89.61c.33.26.3.47,0,.72s-.61.47-.91.71a1.71,1.71,0,0,0-.45.52.24.24,0,0,0,.27.23l.35-.05a2,2,0,0,1,.42,0c.09,0,.22.07.24.14a.3.3,0,0,1-.09.26,4,4,0,0,1-.4.27,1.89,1.89,0,0,0-.68.75.91.91,0,0,0-.05.85,1.28,1.28,0,0,0,.31-.15c.2-.25.38-.53.58-.78a.53.53,0,0,1,.87-.1,5.69,5.69,0,0,1,1,1c.13.18.27.38.17.61s-.36.23-.58.23l-3.21,0c-.22,0-.43.07-.65.09a1.91,1.91,0,0,1-.41,0c-.28,0-.56-.07-.84-.08H213c-.21,0-.42.05-.5.27a.82.82,0,0,0,.07.8.38.38,0,0,0,.26.14c.5,0,1,0,1.51,0a.84.84,0,0,0,.4-.24c.18-.16.34-.35.52-.51a.41.41,0,0,1,.44-.09,7.27,7.27,0,0,1,2,.89,2.23,2.23,0,0,1,.24.19.4.4,0,0,1-.06.63,1.12,1.12,0,0,0-.53,1.18c0,1.31,0,2.62,0,3.93a1.47,1.47,0,0,1,0,.42,1,1,0,0,1-.82.78,7.93,7.93,0,0,1-1.09,0,.39.39,0,0,1-.34-.22c-.05-.09-.07-.19-.11-.28a.56.56,0,0,0-.57-.37h-9.32a.82.82,0,0,0-.93.52.7.7,0,0,1-.49.41,2.23,2.23,0,0,1-.88.18.8.8,0,0,1-.85-.77,3.19,3.19,0,0,1-.05-.54V12.75a2.59,2.59,0,0,1,0-.48.34.34,0,0,1,.45-.29c.44.13.89.26,1.32.43a2.22,2.22,0,0,0,.81.18h1.4a2.17,2.17,0,0,0,.36,0,.38.38,0,0,0,.34-.29,1,1,0,0,0,0-.24c.06-.46-.07-.64-.53-.68H206c-1.69,0-3.39,0-5.08,0-.29,0-.57.06-.85.08a.46.46,0,0,1-.52-.33c-.11-.27,0-.49.32-.49s.52,0,.78.06c.45,0,.89,0,1.33,0l4.9,0h7.87c.34,0,.68,0,1,0a1.9,1.9,0,0,0,.34-.11.78.78,0,0,0-.55-.46,5,5,0,0,1-1.08-.4.83.83,0,0,0-.47-.08,11,11,0,0,0-1.13.17,14.09,14.09,0,0,1-2.82.32,1.52,1.52,0,0,1-.47-.06.21.21,0,0,1-.14-.17s.07-.12.12-.18a.18.18,0,0,1,.11,0l1.76-.43c.38-.11.76-.25,1.14-.39A1.74,1.74,0,0,0,212.85,8.67Zm-3.25,8.06h4.6a1.63,1.63,0,0,0,.53-.08.46.46,0,0,0,.21-.26.28.28,0,0,0-.19-.33,1.53,1.53,0,0,0-.36-.07h-1a5.42,5.42,0,0,1-2.07-.37,1.22,1.22,0,0,1-.88-1c0-.28,0-.56-.08-.84-.05-.45-.16-.55-.62-.57a4.82,4.82,0,0,1-.54,0,.76.76,0,0,0-1,.49,2.88,2.88,0,0,1-1,1.15,5.9,5.9,0,0,1-1.67.82,5.49,5.49,0,0,0-.68.24,1,1,0,0,0-.34.24.35.35,0,0,0,.16.58,2,2,0,0,0,.48.05Zm0,1.53v0h4.54a1.89,1.89,0,0,0,.53-.08.44.44,0,0,0,.29-.48.39.39,0,0,0-.36-.35,2.59,2.59,0,0,0-.48,0h-8.89a3.91,3.91,0,0,0-.49,0,.41.41,0,0,0-.36.35.44.44,0,0,0,.28.49,1.5,1.5,0,0,0,.47.08Zm4.5-11.83h-1.45c-.25,0-.35.2-.2.41a2,2,0,0,0,.28.3,5.81,5.81,0,0,0,1.28.79.55.55,0,0,0,.62-.08q.41-.31.78-.66a2.31,2.31,0,0,0,.34-.42.21.21,0,0,0-.15-.32,1.51,1.51,0,0,0-.3,0Zm-9.7,7.84h0v.48c0,.33.15.51.56.36a.83.83,0,0,0,.16-.09,3.82,3.82,0,0,0,1-1.07,1.28,1.28,0,0,0,.16-.38.29.29,0,0,0-.27-.39c-.4,0-.8,0-1.2,0a.43.43,0,0,0-.42.43A4.85,4.85,0,0,0,204.4,14.27Zm9.31-1.09h-.9a.39.39,0,0,0-.28.63.76.76,0,0,0,.54.35l.78.09a2.91,2.91,0,0,0,.66,0c.32,0,.44-.2.43-.53s-.14-.51-.45-.54S214,13.18,213.71,13.18Zm-4.23-.59v0a2.94,2.94,0,0,0,.42,0,.45.45,0,0,0,.44-.48v-.24c0-.27-.12-.43-.37-.46a6.76,6.76,0,0,0-.9,0,.45.45,0,0,0-.41.38,3,3,0,0,0,0,.42.35.35,0,0,0,.31.38A4.9,4.9,0,0,0,209.48,12.59Z" fill="#009fa8"/><path d="M222.2,9.93V1a1.62,1.62,0,0,1,0-.31c0-.27.19-.39.45-.32a4.47,4.47,0,0,1,1,.3,4.79,4.79,0,0,0,2.41.45,1.16,1.16,0,0,0,.66-.26,1.45,1.45,0,0,0,.22-.21.68.68,0,0,1,.88-.15c.49.27,1,.56,1.44.87a.41.41,0,0,1,0,.68,2.13,2.13,0,0,0-.25.16,1.33,1.33,0,0,0-.33.34c-.46.85-.9,1.71-1.36,2.55-.2.37-.43.73-.64,1.1a1.43,1.43,0,0,0-.12.21.76.76,0,0,0,.21,1.07c.39.32.78.64,1.14,1A4.31,4.31,0,0,1,229,10a.77.77,0,0,0,.87.55c1.13,0,2.26,0,3.39,0h3.93l1.09,0a.61.61,0,0,0,.48-.21l.77-.86c.35-.38.56-.43,1-.19a5.19,5.19,0,0,1,1.42,1.3c.19.25,0,.53-.29.55a3.05,3.05,0,0,1-.43,0h-3c-.53,0-.7.18-.7.69,0,1.6,0,3.19,0,4.78v.24a.47.47,0,0,0,.37.43,1.93,1.93,0,0,0,.42.05c.38,0,.76-.05,1.15,0a1.35,1.35,0,0,0,1.31-1c.13-.3.24-.6.37-.89s.29-.36.46-.29.21.23.17.47-.08.39-.11.59a.93.93,0,0,0,.44,1,1.23,1.23,0,0,1,.48.53.9.9,0,0,1-.47,1.21,4.64,4.64,0,0,1-1.86.46,4.07,4.07,0,0,0-.61.05,10.36,10.36,0,0,1-2.89-.08,1.73,1.73,0,0,1-1.44-1.44,3.54,3.54,0,0,1-.05-.73V12c0-.81,0-.85-.86-.85-.66,0-.74.07-.76.72a9.51,9.51,0,0,1-.51,2.9,6.34,6.34,0,0,1-2,2.85A10.27,10.27,0,0,1,228.9,19c-.55.26-1.13.4-1.68.65a2.79,2.79,0,0,1-.71.14.19.19,0,0,1-.23-.15.32.32,0,0,1,.13-.24c.28-.17.57-.3.85-.47s.81-.51,1.22-.78a5.55,5.55,0,0,0,1.83-2.13,7.83,7.83,0,0,0,.78-2.27c.11-.61.15-1.24.22-1.86,0-.06,0-.12,0-.18,0-.43-.15-.59-.57-.61a6,6,0,0,0-.85,0,.47.47,0,0,0-.51.48,1.51,1.51,0,0,0,0,.3A3.73,3.73,0,0,1,229,14a2.18,2.18,0,0,1-.33.42,3.49,3.49,0,0,1-1.75,1,1.34,1.34,0,0,1-.3,0c-.51.05-.69-.07-.84-.56a4.11,4.11,0,0,0-.15-.46,1.1,1.1,0,0,0-.62-.63.31.31,0,0,0-.46.28,3.09,3.09,0,0,0,0,.43c0,1.29,0,2.58,0,3.86a5.4,5.4,0,0,1-.11.9.54.54,0,0,1-.22.34,1.79,1.79,0,0,1-1.39.25.71.71,0,0,1-.57-.69c0-.18,0-.36,0-.54V9.93Zm2.3-2.59h0v5.13c0,.41.12.58.51.6a11.63,11.63,0,0,0,1.32,0,.6.6,0,0,0,.5-.3,2.49,2.49,0,0,0,.33-2,10.35,10.35,0,0,0-1-2.38c-.21-.34-.41-.69-.65-1a1,1,0,0,1-.11-1c.21-.59.4-1.18.59-1.77,0-.1,0-.2.07-.29.08-.32.17-.62.23-.94s.18-.82.25-1.24-.1-.46-.41-.47a8.67,8.67,0,0,0-1.14,0c-.37,0-.49.17-.49.55Z" fill="#009fa8"/><path d="M135.21,6.72V1.82a4.89,4.89,0,0,1,0-.54.27.27,0,0,1,.37-.21,14.9,14.9,0,0,1,1.42.49,2.48,2.48,0,0,0,1.17.26h8.3a1.11,1.11,0,0,0,.94-.43c.35-.45.74-.86,1.1-1.28.08-.1.2-.14.26-.06.28.37.74.54,1.06.87s.5.47.73.72a.55.55,0,0,1,.2.54c-.09.26-.34.26-.56.26h-5.81a.4.4,0,0,0-.4.39c0,.58,0,1.16,0,1.75a.39.39,0,0,0,.36.35,1.51,1.51,0,0,0,.3,0c.44,0,.89,0,1.33,0a1.11,1.11,0,0,0,.83-.44,8.67,8.67,0,0,0,.62-.74.75.75,0,0,1,1.23-.14A13.59,13.59,0,0,1,150.11,5a.81.81,0,0,1,.12.14.29.29,0,0,1-.16.4,1.45,1.45,0,0,1-.3,0h-.72l-4.36,0h-.24c-.29,0-.42.12-.43.4,0,.61,0,1.21,0,1.82,0,.33.17.45.52.46h1.39a1.15,1.15,0,0,0,.91-.39c.26-.28.51-.58.77-.86s.68-.48,1.15-.11.91.79,1.36,1.19l.08.09c.08.14.18.28.09.45a.41.41,0,0,1-.4.21h-.3l-4.78,0h-.43a.38.38,0,0,0-.38.39c0,.58,0,1.17,0,1.75a.45.45,0,0,0,.42.45,2.11,2.11,0,0,0,.36,0h3.51a1.18,1.18,0,0,0,1-.46s0,0,0,0c.43-.44.49-.44,1-.17a7.16,7.16,0,0,1,1.06.56l.2.14c.38.28.42.47.16.85a1.43,1.43,0,0,0-.23.8c0,.52,0,1-.1,1.56a10,10,0,0,1-.19,1.07c0,.2-.11.39-.14.59a5,5,0,0,1-.8,1.87,3.58,3.58,0,0,1-2,1.45,2.32,2.32,0,0,1-.65.08.42.42,0,0,1-.45-.33l-.15-.39a1.86,1.86,0,0,0-.91-1,4.34,4.34,0,0,1-.46-.28c-.1-.07-.19-.16-.15-.3a.3.3,0,0,1,.3-.18,1,1,0,0,1,.29,0,4.68,4.68,0,0,1,.54.1,1.08,1.08,0,0,0,.88-.07A1.87,1.87,0,0,0,148.68,16a12.67,12.67,0,0,0,.33-3.3,1.93,1.93,0,0,0,0-.24.44.44,0,0,0-.43-.42H138.33a1.42,1.42,0,0,0-1,.39,1.69,1.69,0,0,1-1.3.37.85.85,0,0,1-.78-.79,4,4,0,0,1,0-.49Zm4.46-1.15H138.1c-.33,0-.46.09-.47.42a17.8,17.8,0,0,0,0,1.79c0,.4.15.47.55.48h2.12c.28,0,.56,0,.84,0,.43,0,.61-.17.62-.57,0-.56,0-1.12,0-1.69a.39.39,0,0,0-.38-.39,2.17,2.17,0,0,0-.36,0Zm0,3.28h-1.57c-.32,0-.46.14-.47.43,0,.56,0,1.12,0,1.68,0,0,0,0,0,.06a.47.47,0,0,0,.44.43h2.9a2.42,2.42,0,0,0,.47-.07.44.44,0,0,0,.35-.44c0-.56,0-1.13,0-1.69a.37.37,0,0,0-.32-.38,2,2,0,0,0-.42,0Zm.05-6.4v0h-1.51c-.37,0-.56.15-.57.48,0,.5,0,1,0,1.5a1,1,0,0,0,0,.24A.38.38,0,0,0,138,5h2.89a3.31,3.31,0,0,0,.54-.06.42.42,0,0,0,.31-.34,2.86,2.86,0,0,0,0-.42c0-.34,0-.68,0-1s-.16-.66-.64-.67S140.16,2.45,139.68,2.45Z" fill="#009fa8"/><path d="M182.39,52.93s-.09,0-.12,0a1.66,1.66,0,0,1-1.12,0,1,1,0,0,0-.48,0c-.7.07-1.4.17-2.1.24A1.59,1.59,0,0,1,178,53a4.34,4.34,0,0,1-.5-.2.42.42,0,0,0-.12,0c-.61.54-.63.36-.63,1.32,0,.14,0,.28,0,.42a2.36,2.36,0,0,1-1.26,2.18,4.79,4.79,0,0,1-.58.33,1.58,1.58,0,0,1-.52.12.6.6,0,0,1-.58-.7.33.33,0,0,1,.23-.25c.26-.11.53-.2.79-.3s.27-.11.28-.28-.14-.22-.38-.22-.52,0-.78,0c-.45,0-.57-.13-.59-.58,0-.3,0-.61,0-.91v-.56c-.1-.1-.21-.19-.3-.29a1.88,1.88,0,0,1-.21-.36.35.35,0,0,1,.18-.46,1.88,1.88,0,0,1,.39-.16,1,1,0,0,0,.66-.63c-.09-.09-.17-.2-.27-.29l-.94-.76a1.6,1.6,0,0,1-.21-.23l.25-.35a.47.47,0,0,1,.47-.22c.43.07.6-.25.79-.53a.23.23,0,0,0-.15-.33l-.12,0c-.34,0-.68,0-1,0s-.54.16-.55.57c0,.82,0,1.65,0,2.48V55c0,.56,0,1.12,0,1.69a.47.47,0,0,1-.31.53.73.73,0,0,1-.74-.08.48.48,0,0,1-.14-.25,2.07,2.07,0,0,1,0-.43c0-3.58,0-7.17,0-10.75a3.32,3.32,0,0,1,0-.55.53.53,0,0,1,.59-.48h4.6a.53.53,0,0,1,.53.41,1,1,0,0,1,0,.35c0,.93,0,1.86,0,2.78v.06c0,.39-.17.55-.56.59a4.34,4.34,0,0,1-.72,0,.59.59,0,0,0-.45.11s-.06.09,0,.11a.83.83,0,0,1-.29.87l-.25.26a.41.41,0,0,0-.07.4.3.3,0,0,0,.47.18,6.15,6.15,0,0,0,.49-.53,6,6,0,0,1,.38-.47.43.43,0,0,1,.6,0,.4.4,0,0,1,.11.54c-.11.19-.26.36-.39.54a.76.76,0,0,0-.22.4c.13.16.28.08.4.08a.63.63,0,0,1,.69.55c0,.15.06.32.1.47a2.78,2.78,0,0,0,.15.3c.08-.07.15-.1.18-.16a.58.58,0,0,1,.55-.31c.17,0,.33,0,.39-.22a.42.42,0,0,0-.19-.47c-.24-.19-.49-.36-.74-.53s-.31-.21-.26-.43a.66.66,0,0,1,.46-.51l.12,0c.6.08.71-.42.93-.78a.23.23,0,0,0-.17-.33,4.78,4.78,0,0,0-.53-.06.38.38,0,0,1-.38-.39q0-1.61,0-3.21c0-.35.19-.5.53-.54h4.54c.66,0,.83.17.84.82,0,.38,0,.76,0,1.14v8.95c0,.2,0,.4,0,.6a1.26,1.26,0,0,1-1.06,1.09,3.21,3.21,0,0,1-1.38,0c-.35-.08-.46-.25-.43-.61a2,2,0,0,1,0-.24.4.4,0,0,1,.38-.34,3.29,3.29,0,0,1,.54,0,.63.63,0,0,0,.77-.63v-.25c0-.58,0-1.16,0-1.75A.64.64,0,0,0,182.39,52.93Zm.06-.68c0-.19.05-.33.05-.47,0-.78,0-1.57,0-2.35a1.1,1.1,0,0,0,0-.18.4.4,0,0,0-.38-.4,3,3,0,0,0-.42,0h-.91a3,3,0,0,0-.42,0,.45.45,0,0,0-.4.31,3.63,3.63,0,0,1-.57.92,3.6,3.6,0,0,0-.28.4.29.29,0,0,0,.2.42.34.34,0,0,0,.38-.11c.19-.24.36-.49.54-.73a1.54,1.54,0,0,1,.21-.29.55.55,0,0,1,.72,0c.16.13.17.33,0,.59a5.5,5.5,0,0,1-.34.5l-.5.6c-.07.08-.06.25,0,.27a.25.25,0,0,0,.21,0c.16-.13.29-.29.45-.4.39-.27.62-.21.8.22.05.11.08.23.14.34A.69.69,0,0,0,182.45,52.25Zm-1.77-5.06h-1.39a.36.36,0,0,0-.06.71,2.59,2.59,0,0,0,.48,0q1,0,2,0a2.26,2.26,0,0,0,.53-.08.29.29,0,0,0,.05-.53,1,1,0,0,0-.45-.13C181.48,47.18,181.08,47.19,180.68,47.19ZM182.44,46c-.21-.37-.25-.42-.58-.42H179.5a1.11,1.11,0,0,0-.35.08A.33.33,0,0,0,179,46a.32.32,0,0,0,.27.28h2.55a1.51,1.51,0,0,0,.3,0A.42.42,0,0,0,182.44,46Zm-8.36,1.91v0c.44,0,.88,0,1.32,0s.45-.18.43-.39-.16-.32-.44-.32c-.82,0-1.65,0-2.47,0a.64.64,0,0,0-.28.07.32.32,0,0,0-.21.34.31.31,0,0,0,.27.29,4.73,4.73,0,0,0,.54,0Zm.1-1.61h1a1.84,1.84,0,0,0,.41,0,.31.31,0,0,0,.25-.24.33.33,0,0,0-.21-.34,1.5,1.5,0,0,0-.46-.09h-2.11a1.1,1.1,0,0,0-.4.08.36.36,0,0,0-.23.33c0,.11.13.24.29.27a2.71,2.71,0,0,0,.41,0Zm0,6.8c.08.34.15.61.2.88a.5.5,0,0,0,.46.47,2,2,0,0,0,.24,0,.51.51,0,0,0,.6-.47,1.7,1.7,0,0,1,.31-.87C175.34,52.85,174.75,53.1,174.15,53.13Zm1.8-1.69a.48.48,0,0,0-.48.31.25.25,0,0,0,0,.17.38.38,0,0,0,.2.1.25.25,0,0,0,.27-.2A1.55,1.55,0,0,0,176,51.44Z" fill="#009fa8"/><path d="M54,10.42c-.07.07-.16.12-.2.2a2.49,2.49,0,0,0-.26.61,11.3,11.3,0,0,1-1.44,3.3A7.9,7.9,0,0,1,51,15.89a10.57,10.57,0,0,1-2.41,2A14.41,14.41,0,0,1,46.33,19c-.78.3-1.59.44-2.38.68a1.94,1.94,0,0,1-.54,0,.2.2,0,0,1-.13-.11.28.28,0,0,1,.08-.2,9.59,9.59,0,0,1,.9-.47A13.88,13.88,0,0,0,49,15.42a10.89,10.89,0,0,0,1.8-2.85,7.32,7.32,0,0,0,.6-1.76c0-.2.11-.39.15-.59a6.46,6.46,0,0,0,.18-.76c0-.38-.08-.51-.47-.53H46.1a8.1,8.1,0,0,0-1.63.14,1.36,1.36,0,0,1-.29.06.45.45,0,0,1-.46-.33A.34.34,0,0,1,44,8.35h.24l7,0h.12c.41,0,.56-.13.59-.53.06-.74.12-1.48.15-2.23s0-1.37.05-2a.53.53,0,0,0-.56-.62h-6c-.36,0-.72.05-1.08.07-.2,0-.4,0-.6,0a.41.41,0,0,1-.45-.39.33.33,0,0,1,.35-.44c.12,0,.24,0,.36,0,.58,0,1.17.08,1.75.08,3.51,0,7,0,10.53,0l2.06,0a1.06,1.06,0,0,0,.95-.42c.26-.34.54-.66.81-1s.49-.42.93-.17A7.91,7.91,0,0,1,63,2.24l.07.09c.2.3.07.57-.29.58s-.45,0-.67,0l-6.9,0a2.17,2.17,0,0,0-.36,0,.45.45,0,0,0-.46.46c0,.22,0,.45,0,.67,0,1.19-.06,2.37-.13,3.56,0,.52.07.76.72.74,1,0,2,0,3,0h.3A.82.82,0,0,0,59,8l.79-1a.75.75,0,0,1,1.15-.16,10.67,10.67,0,0,1,1.68,1.47.35.35,0,0,1,.12.38c0,.13-.19.2-.4.2-.93,0-1.86,0-2.78,0l-4.24,0h-.18c-.39,0-.63.13-.42.6s.4,1,.62,1.44a12.74,12.74,0,0,0,3.09,3.91A10.24,10.24,0,0,0,60.9,16.5a16.84,16.84,0,0,0,1.77.61,3.43,3.43,0,0,1,.44.19.18.18,0,0,1,0,.3,1.39,1.39,0,0,1-.28.12,2.46,2.46,0,0,0-1.4,1.17c-.12.21-.23.42-.36.63a.33.33,0,0,1-.51.14,11.75,11.75,0,0,1-4.21-4c-.32-.55-.69-1.09-1-1.66a6.6,6.6,0,0,1-.65-1.49,1,1,0,0,0-.1-.28,4.24,4.24,0,0,1-.31-1.16C54.26,10.86,54.28,10.59,54,10.42Z" fill="#009fa8"/><path d="M177.54,19.31c-.06-.21.06-.33.17-.45.29-.36.59-.72.86-1.09a11.12,11.12,0,0,0,1.27-2.26,13,13,0,0,0,.63-1.56,10.89,10.89,0,0,0,.56-2.59c0-.34,0-.68.05-1,0-.12,0-.24,0-.36a.33.33,0,0,1,.3-.26,2.43,2.43,0,0,1,.66,0c.62.12,1.22.26,1.83.39l.18.06a.41.41,0,0,1,.08.7,1.42,1.42,0,0,0-.64,1,3.25,3.25,0,0,1-.22.56c-.07.17-.15.33-.21.5a1.06,1.06,0,0,0,.13.93,6.47,6.47,0,0,0,2.44,2.29l.22.11a.34.34,0,0,0,.49-.35c0-.24,0-.48,0-.72V9.07a3.85,3.85,0,0,0,0-.48.41.41,0,0,0-.36-.42,2,2,0,0,0-.42,0c-1,0-2,0-3,0-.42,0-.84.1-1.26.15a1.57,1.57,0,0,1-.3.05.41.41,0,0,1-.42-.41.35.35,0,0,1,.36-.4c.26,0,.52,0,.79,0h3.51c.72,0,1.45,0,2.17,0l2.48,0a1,1,0,0,0,.83-.42,7.57,7.57,0,0,1,.82-.88c.29-.28.41-.27.75-.06a5.29,5.29,0,0,1,1.08.87c.17.19.38.36.55.56a.28.28,0,0,1-.21.48,2.17,2.17,0,0,1-.36,0l-3.69,0a2.14,2.14,0,0,0-.36,0,.44.44,0,0,0-.41.39,3.88,3.88,0,0,0,0,.48v2.17a2,2,0,0,0,0,.42.49.49,0,0,0,.43.37h1.76a1.16,1.16,0,0,0,1.05-.48,7.87,7.87,0,0,1,.72-.81.64.64,0,0,1,1-.09c.48.39.93.83,1.38,1.26a.56.56,0,0,1,.15.32.29.29,0,0,1-.23.36,2.41,2.41,0,0,1-.54,0h-5.21a.5.5,0,0,0-.53.59c0,.7,0,1.41,0,2.11,0,.32,0,.64,0,1a1.38,1.38,0,0,0,0,.35.51.51,0,0,0,.55.46c1,0,1.89.09,2.84.07s2-.12,2.95-.19c.61,0,1.21-.09,1.81-.15h.18c.3,0,.45,0,.46.18s-.17.25-.3.33a1.61,1.61,0,0,0-.82,1.21c0,.15,0,.32-.06.48a.48.48,0,0,1-.52.48c-.4,0-.8.05-1.2.05-1.36,0-2.71,0-4.06-.12A17.55,17.55,0,0,1,188,19a7.43,7.43,0,0,1-4.41-3c-.22-.29-.38-.62-.58-.92s-.22-.48-.45-.62-.27.17-.35.3a13.47,13.47,0,0,1-1.65,2.31,11.73,11.73,0,0,1-2.42,2.08A.58.58,0,0,1,177.54,19.31Z" fill="#009fa8"/><path d="M81.18,19.33c-1.21,0-2.42,0-3.63,0-.64,0-1.29,0-1.93,0l-8.35,0c-.43,0-.85.06-1.27.06a.48.48,0,0,1-.53-.47.23.23,0,0,1,.16-.29,1.26,1.26,0,0,1,.47-.05,21.43,21.43,0,0,0,2.66.1l4.84,0,.24,0a.53.53,0,0,0,.49-.52c0-.2,0-.41,0-.61,0-1.57,0-3.14,0-4.71v-.25a.42.42,0,0,0-.31-.4,1.91,1.91,0,0,0-.47-.07c-1.28,0-2.55,0-3.82,0-.52,0-1,.08-1.57.13a.51.51,0,0,1-.51-.24c-.17-.25-.07-.5.22-.53a3.84,3.84,0,0,1,.48,0l5.27,0a1.51,1.51,0,0,0,.3,0,.5.5,0,0,0,.4-.41c0-.1,0-.2,0-.3V6.49a1.08,1.08,0,0,0,0-.18c0-.41-.2-.59-.6-.61-.22,0-.44,0-.66,0-1.58,0-3.15,0-4.72,0-.32,0-.64.07-1,.09a4.69,4.69,0,0,1-.84,0,.36.36,0,0,1-.35-.41.26.26,0,0,1,.23-.3,4.87,4.87,0,0,1,.54,0h6.9a.45.45,0,0,0,.47-.51c0-.18,0-.37,0-.55,0-1,0-2,0-3.08,0-.37.13-.54.5-.51.65,0,1.29.12,1.93.21a1.43,1.43,0,0,1,.49.22.24.24,0,0,1,0,.41c-.51.29-.52.75-.51,1.25s0,1.29,0,1.94c0,.47.12.6.6.62h3.33a.72.72,0,0,0,.63-.28l.81-1c0-.06.1-.14.15-.19a.62.62,0,0,1,.87-.13A9.61,9.61,0,0,1,84.93,5a.71.71,0,0,1,.1.14.33.33,0,0,1-.23.51H78.21c-.27,0-.53,0-.79,0-.49,0-.65.19-.67.66,0,.16,0,.32,0,.48,0,1.31,0,2.62,0,3.93a2.91,2.91,0,0,0,0,.3.5.5,0,0,0,.39.42,1.51,1.51,0,0,0,.3,0h1.88a.83.83,0,0,0,.69-.31l.81-1c.1-.11.19-.22.29-.31a.51.51,0,0,1,.62,0,7.38,7.38,0,0,1,1.94,1.62.64.64,0,0,1,.11.27.26.26,0,0,1-.21.32,3.85,3.85,0,0,1-.48,0H77.77a3,3,0,0,0-.6,0,.46.46,0,0,0-.42.51c0,.22,0,.44,0,.66,0,1.53,0,3.06,0,4.59a1.56,1.56,0,0,0,0,.31.46.46,0,0,0,.43.43,3,3,0,0,0,.42,0h3.82a.79.79,0,0,0,.68-.31l.78-.92a2.14,2.14,0,0,1,.28-.32.53.53,0,0,1,.67-.07,8.94,8.94,0,0,1,1.92,1.55,1.3,1.3,0,0,1,.1.15.33.33,0,0,1-.27.53H82.33l-1.15.06Z" fill="#009fa8"/><path d="M120.77,18.75h-8.29c-.34,0-.68,0-1,.08a2,2,0,0,1-.42,0,.43.43,0,0,1-.31-.46.35.35,0,0,1,.36-.33c.2,0,.41,0,.61,0l6.78,0c.65,0,.71-.07.7-.74,0-.39,0-.77,0-1.15a1.93,1.93,0,0,0,0-.24c0-.31-.15-.44-.45-.45l-.79,0h-3.27c-.34,0-.68,0-1,.05s-.41,0-.61,0a.52.52,0,0,1-.44-.27.32.32,0,0,1,.23-.5,5,5,0,0,1,.67,0l5.08,0h.24a.34.34,0,0,0,.35-.36c0-.42,0-.84,0-1.26s-.18-.39-.45-.38l-.85,0L114.1,13l-.55,0a2.17,2.17,0,0,1-.36,0,.29.29,0,0,1-.28-.18c0-.11.09-.23.28-.26l2.57-.37,1.13-.18c.44-.07.87-.16,1.31-.22a7.82,7.82,0,0,0,1.6-.32c.21-.06.43-.08.65-.12l.48-.09a9.32,9.32,0,0,0,1.57-.42,11.12,11.12,0,0,0,1.75-.64A4.55,4.55,0,0,1,125,10a.66.66,0,0,1,.58,0,4.53,4.53,0,0,1,.48.27c.4.3.79.61,1.19.93a1.48,1.48,0,0,1,.25.25.31.31,0,0,1-.18.48,3.73,3.73,0,0,1-.47,0,2.17,2.17,0,0,0-.72,0,22.23,22.23,0,0,1-2.44.43l-1.55.23c-.35.06-.44.13-.44.45s0,.89,0,1.33.11.43.44.44h1.7a.87.87,0,0,0,.69-.32c.23-.25.44-.53.67-.77.49-.51.5-.62,1.23-.18a5.85,5.85,0,0,1,1.42,1.3.53.53,0,0,1,.11.21.33.33,0,0,1-.23.42,1,1,0,0,1-.3,0h-5.14a1.46,1.46,0,0,0-.3,0,.36.36,0,0,0-.28.29.5.5,0,0,0,0,.12c0,.58,0,1.17,0,1.75,0,.27.1.37.36.39a3,3,0,0,0,.42,0h3.7a.71.71,0,0,0,.67-.32,7.36,7.36,0,0,1,.62-.74c.52-.53.71-.55,1.28-.1s.82.71,1.22,1.08a.4.4,0,0,1,.16.48.46.46,0,0,1-.45.26h-.18l-7,0Z" fill="#009fa8"/><path d="M120,5.11v2a3,3,0,0,0,0,.42c0,.31.17.42.49.35.16,0,.31-.09.47-.11a.19.19,0,0,1,.19.28.88.88,0,0,1-.22.28,1.13,1.13,0,0,1-.27.13c-.63.24-.66.28-.67,1v.48a1,1,0,0,1-.93,1,3,3,0,0,1-.42,0,.86.86,0,0,1-.85-.73.13.13,0,0,1,0-.06c-.16-.62-.17-.63-.76-.46-.29.08-.57.2-.85.29a3.24,3.24,0,0,1-.41.13,5.37,5.37,0,0,0-1,.33,4.58,4.58,0,0,1-.53.14l-.75.21a1.87,1.87,0,0,1-.4.13,2.74,2.74,0,0,0-1.27.53c-.32.23-.46.18-.7-.14a1.43,1.43,0,0,1-.2-.3c-.16-.35-.31-.7-.46-1.05l-.06-.17c-.1-.4.07-.62.48-.64s.61,0,.91,0c.47-.05.63-.22.63-.71q0-2.74,0-5.49c0-.53-.13-.64-.66-.59-.18,0-.36.07-.53.1a.61.61,0,0,1-.56-.17.34.34,0,0,1-.1-.38.3.3,0,0,1,.28-.2c.36,0,.73,0,1.09,0s.8,0,1.21,0c1.39,0,2.78,0,4.17,0a1.29,1.29,0,0,0,1.1-.5A8.81,8.81,0,0,1,119,.47a.56.56,0,0,1,.71-.1,4.75,4.75,0,0,1,1.48,1.23c.22.28.08.56-.27.59-.16,0-.33,0-.49,0s-.43.13-.46.44a3.85,3.85,0,0,0,0,.48ZM116.05,4h0c.38,0,.77,0,1.15,0a.46.46,0,0,0,.5-.48,4.07,4.07,0,0,0,0-.78c0-.37-.14-.49-.51-.54l-.24,0-1.69,0a2.17,2.17,0,0,0-.36,0,.35.35,0,0,0-.32.31,7.79,7.79,0,0,0,0,1.08c0,.27.17.38.45.39S115.71,4,116.05,4Zm.09.58h-.6c-.21,0-.41,0-.61,0a.39.39,0,0,0-.37.4c0,.32,0,.64,0,1a.35.35,0,0,0,.3.34,1.34,1.34,0,0,0,.35,0H117a3.07,3.07,0,0,0,.42-.07.33.33,0,0,0,.26-.3c0-.34,0-.68,0-1a.33.33,0,0,0-.25-.31,1.51,1.51,0,0,0-.41-.06Zm0,2.42h-.91c-.54,0-.68.16-.69.69,0,.1,0,.2,0,.3,0,.74.2.81.82.66a8.05,8.05,0,0,1,1.55-.23,2.36,2.36,0,0,0,.53-.1.39.39,0,0,0,.21-.19,1.19,1.19,0,0,0,0-.83.43.43,0,0,0-.2-.2,1.51,1.51,0,0,0-.47-.09C116.71,7,116.43,7,116.15,7Z" fill="#009fa8"/><path d="M208.14,4.06a2.07,2.07,0,0,1,1,1,.36.36,0,0,1-.34.57h-1.45a.65.65,0,0,0-.59.18.86.86,0,0,0,.13.23,1.86,1.86,0,0,0,.49.24,1.21,1.21,0,0,1,.77.71c.07.16.08.36.3.48l.4-.18a.45.45,0,0,1,.46,0,3.69,3.69,0,0,1,1,1.1A.38.38,0,0,1,210,9h-.25l-5.8,0c-.3,0-.61,0-.91,0a.8.8,0,0,0-.77.37,1.31,1.31,0,0,1-1,.59,1.48,1.48,0,0,1-.47,0,.76.76,0,0,1-.71-.83c0-.22,0-.44,0-.67V1.62a3.2,3.2,0,0,1,0-.54.38.38,0,0,1,.48-.34,3.44,3.44,0,0,1,1.21.35,1.49,1.49,0,0,0,.74.22c.35,0,.69,0,1,0l3.33,0h.42A.7.7,0,0,0,208,1c.19-.31.41-.6.63-.93h.51l.11.11.3.37a3.2,3.2,0,0,1,.65.86.34.34,0,0,1-.21.49,1.4,1.4,0,0,1-.41.06c-.36,0-.73,0-1.09,0-.16,0-.32,0-.46,0-.12.26,0,.42.15.58s.25.31.35.48a.48.48,0,0,1,.1.51.61.61,0,0,1-.62.26,6.83,6.83,0,0,0-.78-.06c-.37,0-.47.11-.49.48a4,4,0,0,0,0,.6A.21.21,0,0,0,207,5a1.31,1.31,0,0,0,.33-.25A2.16,2.16,0,0,1,208.14,4.06ZM202.46,7c0,.21,0,.51,0,.81a1.46,1.46,0,0,0,0,.36.3.3,0,0,0,.38.2.39.39,0,0,0,.34-.3.93.93,0,0,1,.41-.56c.28-.23.52-.5.78-.75a1.44,1.44,0,0,0,.32-.64c.07-.27,0-.44-.33-.43a5,5,0,0,0-.66.08,3,3,0,0,1-.42.06.51.51,0,0,1-.48-.45c0-.16.21-.35.42-.37h.24l.73,0c.74,0,.85-.06.81-.87A.44.44,0,0,0,205,4a.49.49,0,0,0-.22-.19,1.36,1.36,0,0,0-1,.12c-.29.18-.56.39-.84.59a.63.63,0,0,0-.35.75.24.24,0,0,1,0,.12A6.25,6.25,0,0,0,202.46,7ZM206,6.8a4.29,4.29,0,0,0-.85.59c-.26.18-.55.31-.83.47s-.66.11-.95.35a.84.84,0,0,0,.79.27h2.89a4.89,4.89,0,0,0,.54,0,.42.42,0,0,0,.25-.14.29.29,0,0,0,0-.21.16.16,0,0,0-.13-.09,2.17,2.17,0,0,0-.36,0,.75.75,0,0,1-.74-.42A5.14,5.14,0,0,0,206.3,7,1.49,1.49,0,0,0,206,6.8ZM204.63,2c0,.14.05.23.13.31a2.39,2.39,0,0,1,.4.45.69.69,0,0,0,.71.36,1.4,1.4,0,0,0,1.19-.79c.14-.22,0-.41-.23-.41-.7,0-1.4,0-2.11,0C204.69,2,204.66,2,204.63,2Zm-2.19.81a4.09,4.09,0,0,0,.07.53.21.21,0,0,0,.16.14.23.23,0,0,0,.19-.1c.12-.31.23-.63.34-1a.65.65,0,0,0,0-.24.29.29,0,0,0-.21-.26.34.34,0,0,0-.38.09.64.64,0,0,0-.13.26A4,4,0,0,0,202.44,2.82Z" fill="#009fa8"/><path d="M7.1,56.61,7,56.83a.71.71,0,0,1-.9.37.38.38,0,0,1-.3-.34,2.09,2.09,0,0,1,0-.25c0-3.48,0-7,0-10.45,0-.24,0-.48,0-.72a.63.63,0,0,1,.64-.66H12a2.88,2.88,0,0,1,.65.07.45.45,0,0,1,.43.5,10.41,10.41,0,0,1-.12,2.16,1.37,1.37,0,0,1-1.48,1.23,6.85,6.85,0,0,1-1.69-.08,2.47,2.47,0,0,1-.29-.06.67.67,0,0,1-.5-.79,1.33,1.33,0,0,1,.12-.32.8.8,0,0,1,.66,0,5.46,5.46,0,0,0,1.51.08c.44,0,.53-.13.61-.59a1.2,1.2,0,0,0,0-.65.45.45,0,0,0-.44-.34H7.79c-.73,0-.88.15-.88.89s0,1.21,0,1.81c0,.39.15.55.55.56.63,0,1.25,0,1.88,0h2.6a1.08,1.08,0,0,1,.82.31.6.6,0,0,1,.2.6c0,.1,0,.19-.07.29-.07.34-.14.67-.22,1a7.64,7.64,0,0,1-.67,1.8c-.25.46-.54.9-.8,1.35-.12.21-.11.34.09.48.42.3.86.58,1.29.88a4.29,4.29,0,0,1,.48.36.29.29,0,0,1,0,.39l-.13.13c-.48.47-.58.48-1.11.06S11,56.3,10.65,56a.63.63,0,0,0-.83,0L8.49,57c-.38.27-.49.27-.85,0C7.48,56.83,7.31,56.74,7.1,56.61Zm0-.25c.25-.13.52-.26.77-.42.41-.27.81-.53,1.19-.82s.31-.39.11-.72-.39-.61-.55-.93a10.75,10.75,0,0,1-.54-1.27c-.16-.46-.28-.93-.42-1.39a.84.84,0,0,0,0-.17.35.35,0,0,0-.29-.19.32.32,0,0,0-.34.21,1,1,0,0,0-.06.35c0,.66,0,1.32,0,2,0,.9,0,1.81,0,2.71A.8.8,0,0,0,7.07,56.36Zm3.13-5.92h0c-.38,0-.76,0-1.14,0s-.38.19-.32.46a7.92,7.92,0,0,0,.81,2c.08.14.14.29.23.43a1.14,1.14,0,0,0,.28.3.27.27,0,0,0,.42-.06A11.21,11.21,0,0,0,11.72,51s0-.08,0-.12c0-.3-.07-.46-.39-.48S10.59,50.44,10.2,50.44Z" fill="#009fa8"/><path d="M203.53,47.45c0,.08-.11.14-.12.2,0,.22,0,.44,0,.67l0,6.16a1.51,1.51,0,0,1,0,.3.38.38,0,0,1-.31.33c-.1,0-.2,0-.3,0-.6,0-.69-.18-.69-.65,0-1.49,0-3,0-4.47V46.2c0-.14,0-.28,0-.43,0-.41.15-.54.55-.55s.69,0,1,0a.64.64,0,0,1,.6.34,1,1,0,0,1,.17.32,14.68,14.68,0,0,0,.52,1.54c.12.3.2.61.3.91.2.61.4,1.22.59,1.83l.09.29c.21.59.43,1.17.64,1.76,0,.13.06.27.1.41a2.24,2.24,0,0,0,.11.34.18.18,0,0,0,.33.07,2.11,2.11,0,0,0,.31-.52c.21-.58.38-1.18.59-1.77s.4-1,.59-1.57.42-1.18.62-1.76.36-1,.55-1.54a1.88,1.88,0,0,1,.21-.36.56.56,0,0,1,.5-.29c.26,0,.52,0,.79,0s.48.13.52.52v8.64c0,.12,0,.25,0,.37a.38.38,0,0,1-.39.37h-.37c-.43,0-.56-.16-.56-.6,0-2.05,0-4.1,0-6.16a2.51,2.51,0,0,0-.1-.59.16.16,0,0,0-.13-.09s-.1,0-.14.08a.17.17,0,0,0-.06.1c-.16.54-.32,1.08-.49,1.62-.05.15-.12.29-.18.44l-.19.51-.26.74c-.07.19-.13.38-.19.57l-.2.57-.19.51c-.09.24-.17.49-.26.73L208,54c0,.11,0,.24-.09.35-.33.8-.44.79-1.23.75a.38.38,0,0,1-.36-.28l-.45-1.25-.18-.51-.18-.45c-.11-.3-.21-.6-.31-.91-.2-.58-.39-1.18-.6-1.76a19.86,19.86,0,0,0-.89-2.37C203.66,47.54,203.6,47.51,203.53,47.45Z" fill="#009fa8"/><path d="M116.41,54.89c-.36-.19-.55-.57-.84-.84-.07-.07-.11-.16-.18-.24s-.19-.23-.36-.16-.15.22-.16.36,0,.2,0,.3c0,.75,0,1.49,0,2.24a1.93,1.93,0,0,1,0,.24c0,.3-.19.4-.63.4s-.54-.11-.54-.41c0-.58,0-1.17,0-1.75a4.85,4.85,0,0,0,0-.66.24.24,0,0,0-.13-.18c-.1-.06-.19,0-.25.09s-.29.44-.43.66a2.26,2.26,0,0,1-.16.26c-.39.55-.7.59-1.26.2a.28.28,0,0,1-.1-.37,2.12,2.12,0,0,1,.23-.35,15.47,15.47,0,0,0,1.52-2,.5.5,0,0,0,.06-.56.69.69,0,0,0-.52-.11L112,52a.42.42,0,0,1-.45-.4,1.42,1.42,0,0,1,0-.36c0-.9,0-1.81,0-2.72a1.92,1.92,0,0,1,0-.24.38.38,0,0,1,.41-.36c.34,0,.68,0,1,0h.36a.47.47,0,0,0,.22-.09c.2-.17.16-.39.12-.61a.42.42,0,0,0-.34-.38,3.85,3.85,0,0,0-.48,0h-1a.52.52,0,0,1-.49-.3.45.45,0,0,1,.38-.7c.39,0,.77,0,1.15,0h.37a.38.38,0,0,0,.38-.39c0-.12,0-.24,0-.36a.42.42,0,0,1,.47-.43h.19a.45.45,0,0,1,.51.47s0,.08,0,.12c0,.54.11.59.67.59h1.09a.42.42,0,0,1,.45.45c0,.35-.17.56-.48.57s-.57,0-.85,0h-.42a.45.45,0,0,0-.45.4c-.1.5.08.71.54.7s.77,0,1.15,0,.47.15.47.49c0,.61,0,1.21,0,1.82,0,.3,0,.6,0,.9a3,3,0,0,1,0,.42c-.07.36-.21.46-.59.46s-.48,0-.72,0a.39.39,0,0,0-.25.14c-.08.11,0,.24.07.33s.28.24.41.36c.32.3.65.6,1,.92a.51.51,0,0,1,0,.8A1,1,0,0,1,116.41,54.89Zm-1.52-5c0,.18,0,.35,0,.51a.44.44,0,0,0,.49.48c.36,0,.59-.16.61-.45s0-.64,0-1a.88.88,0,0,0-.07-.23.57.57,0,0,0-.6-.31.45.45,0,0,0-.41.44A4.51,4.51,0,0,0,114.89,49.93Zm-1.17.12h0c0-.24,0-.48,0-.72a.38.38,0,0,0-.35-.35.5.5,0,0,0-.56.25.77.77,0,0,0-.08.34q0,.42,0,.84c0,.34.17.49.52.51a.45.45,0,0,0,.51-.46Z" fill="#009fa8"/><path d="M130.43,3.15a1.79,1.79,0,0,1-.32.34,1.05,1.05,0,0,0-.43.94c0,1.51,0,3,0,4.53,0,.16,0,.32,0,.48a.65.65,0,0,1-.33.55,1.89,1.89,0,0,1-1.27.27.67.67,0,0,1-.6-.59c0-.12,0-.24-.06-.36A.41.41,0,0,0,127,9l-.24,0h-2.05a.61.61,0,0,0-.58.24c0,.05,0,.15-.09.22-.13.25-.18.55-.49.66a1.9,1.9,0,0,1-1.18.1.58.58,0,0,1-.47-.55c0-.15,0-.29,0-.43V2.84c0-.12,0-.25,0-.36a.38.38,0,0,1,.45-.39,2.47,2.47,0,0,1,.81.2,4.78,4.78,0,0,0,2.62.52c.28,0,.57,0,.85,0a1.07,1.07,0,0,0,.88-.45,2.11,2.11,0,0,1,.19-.23.56.56,0,0,1,.55-.18,5.49,5.49,0,0,1,1.86.84A2,2,0,0,1,130.43,3.15Zm-6.34,2.7h0V7.54c0,.12,0,.24,0,.36a.42.42,0,0,0,.45.46H127a.41.41,0,0,0,.4-.38,3.27,3.27,0,0,0,0-.54V4.23c0-.12,0-.25,0-.37a.4.4,0,0,0-.39-.44l-.36,0h-1.93a1.46,1.46,0,0,0-.3,0,.39.39,0,0,0-.38.39,2.08,2.08,0,0,0,0,.25Z" fill="#009fa8"/><path d="M.05,56.79c-.06-.25-.09-.45.13-.62a.61.61,0,0,0,.17-.37c.09-.49.14-1,.21-1.49a20,20,0,0,0,.17-2.89c0-2,0-3.91,0-5.87a1.47,1.47,0,0,1,0-.36.57.57,0,0,1,.66-.48H4.07a.71.71,0,0,1,.82.75c0,.12,0,.24,0,.36,0,3.35,0,6.69,0,10a2.34,2.34,0,0,1-.1.83.83.83,0,0,1-.65.57,4.82,4.82,0,0,1-1.2,0,.69.69,0,0,1-.49-1,.32.32,0,0,1,.3-.18c.16,0,.32,0,.48,0a.43.43,0,0,0,.45-.4,1.46,1.46,0,0,0,0-.3c0-.6,0-1.21,0-1.81S3.58,53,3.06,53a5,5,0,0,0-.67,0,.48.48,0,0,0-.51.49c-.07.63-.15,1.28-.19,1.92a7.54,7.54,0,0,1-.29,1.35.43.43,0,0,1-.54.36A2.25,2.25,0,0,1,.05,56.79Zm3.66-9.68h0v-.72a.47.47,0,0,0-.44-.49,4.51,4.51,0,0,0-.9,0,.46.46,0,0,0-.45.48,13.83,13.83,0,0,0,0,1.44c0,.31.19.45.52.47a6.94,6.94,0,0,0,.79,0,.45.45,0,0,0,.48-.49C3.72,47.56,3.71,47.33,3.71,47.11Zm0,3.55h0c0-.24,0-.48,0-.72a.43.43,0,0,0-.41-.44,6.14,6.14,0,0,0-1,0,.44.44,0,0,0-.42.43c0,.48,0,1,0,1.44a.43.43,0,0,0,.42.44,7.69,7.69,0,0,0,1,0c.29,0,.41-.17.43-.47S3.71,50.88,3.71,50.66Z" fill="#009fa8"/><path d="M234,0h.91a.3.3,0,0,1,.21.08c.19.27.5.23.76.29a4.52,4.52,0,0,1,.53.11.35.35,0,0,1,.17.55.37.37,0,0,1-.12.13.83.83,0,0,0-.34.85c0,.24,0,.48,0,.72s.16.42.47.43h2a.86.86,0,0,0,.56-.19c.08-.07.16-.12.23-.19a.9.9,0,0,1,1.16-.19,9,9,0,0,1,1.62.94,1,1,0,0,1,.2.22.29.29,0,0,1-.16.47,2.32,2.32,0,0,0-1,.52L239.47,6a1.39,1.39,0,0,0-.19.15c-.25.23-.25.41,0,.66a4.48,4.48,0,0,1,.36.4.32.32,0,0,1-.2.55,2.41,2.41,0,0,1-.54,0h-2.48c-1.23,0-2.46,0-3.69,0-.42,0-.84.06-1.26.09a5,5,0,0,1-.67,0,.45.45,0,0,1-.45-.33.34.34,0,0,1,.3-.48c.28,0,.56,0,.84,0,.53,0,1.05,0,1.57,0,.85,0,1.7,0,2.54,0a1.19,1.19,0,0,0,1.11-.48c.17-.23.35-.44.54-.66a.61.61,0,0,1,.74-.24,1,1,0,0,0,.24,0,.38.38,0,0,0,.4-.22c.18-.38.33-.77.49-1.17a1.35,1.35,0,0,0,0-.29.33.33,0,0,0-.31-.43,2.17,2.17,0,0,0-.36,0h-6.78c-.56,0-.65.13-.75.67a10.46,10.46,0,0,1-.29,1.23,1.51,1.51,0,0,1-1.51,1,1.76,1.76,0,0,1-.83-.35.69.69,0,0,1-.2-.29,1.25,1.25,0,0,1,.4-1.51c.3-.24.61-.47.89-.73a3.28,3.28,0,0,0,.81-1.32,1.16,1.16,0,0,1,.1-.28.27.27,0,0,1,.18-.14.28.28,0,0,1,.19.12,1.92,1.92,0,0,1,.14.33c0,.09.06.19.1.28a.58.58,0,0,0,.56.39c.59,0,1.17,0,1.76,0a.48.48,0,0,0,.53-.46,2.17,2.17,0,0,0,0-.36c0-.46,0-.93,0-1.39A1.62,1.62,0,0,1,234,0Z" fill="#009fa8"/><path d="M20.52,52.66c-.14.15-.09.34-.09.52,0,.76,0,1.53,0,2.29a2.57,2.57,0,0,1-.13.83,1.2,1.2,0,0,1-1.1.89,5.37,5.37,0,0,1-1.5-.09.71.71,0,0,1-.49-1,.31.31,0,0,1,.28-.2A4.93,4.93,0,0,1,18,56a4.89,4.89,0,0,0,.66,0,.58.58,0,0,0,.56-.54s0-.08,0-.12c0-.78,0-1.57,0-2.35a.51.51,0,0,0-.06-.15c-.08,0-.19,0-.25.06s-.3.33-.44.5-.29.44-.45.64A.68.68,0,0,1,17,54a.46.46,0,0,1,.06-.55c.28-.37.59-.72.84-1.1s.53-.9.79-1.36a.85.85,0,0,0,.09-.22.24.24,0,0,0-.17-.28,1.84,1.84,0,0,0-.41,0c-.25,0-.49,0-.73,0-.43,0-.58-.13-.59-.57a1.94,1.94,0,0,1,0-.24.39.39,0,0,1,.45-.39h1.51c.14,0,.3,0,.36-.17s-.05-.26-.16-.35L18.18,48l-.1-.07c-.15-.13-.34-.25-.28-.49a.75.75,0,0,1,.48-.51.62.62,0,0,1,.4,0,3.28,3.28,0,0,1,.45.31c.32.23.47.25.76,0s.58-.49.87-.74a.82.82,0,0,0,.16-.25.27.27,0,0,0-.23-.39h-3a.52.52,0,0,1-.56-.56.5.5,0,0,1,.52-.54c.2,0,.4,0,.6,0,1,0,2.1,0,3.15,0a2.4,2.4,0,0,1,.6.06.56.56,0,0,1,.39.85A8.69,8.69,0,0,1,21.64,47c-.26.33-.58.61-.87.92a2.18,2.18,0,0,0-.21.22.43.43,0,0,0,0,.55c.06.1.12.21.19.31a.49.49,0,0,0,.41.22c.12,0,.25,0,.37,0a1.35,1.35,0,0,1,1.09.41.43.43,0,0,1,.16.49q-.27.85-.57,1.71a5.58,5.58,0,0,1-.3.66c-.17.36-.34.43-.72.28C21,52.7,20.76,52.54,20.52,52.66ZM20.44,52a.46.46,0,0,0,.6-.19,6.42,6.42,0,0,0,.33-.64c.1-.2.19-.42,0-.62s-.41-.12-.62-.08a.38.38,0,0,0-.33.38C20.42,51.21,20.43,51.59,20.44,52Z" fill="#009fa8"/><path d="M122.61,55.3a2.09,2.09,0,0,0,.23.21c.3.17.61.32.9.49.57.33.58.76,0,1.12a.41.41,0,0,1-.46,0l-1.45-.85a.38.38,0,0,1-.18-.51,4.23,4.23,0,0,1,.23-.48.74.74,0,0,0-.58-.21H120a.46.46,0,0,0-.46.23c0,.23.15.35.26.52a.33.33,0,0,1-.11.51,7.65,7.65,0,0,1-1.69.79,1,1,0,0,1-.35.06.47.47,0,0,1-.51-.34.61.61,0,0,1,.23-.7,3.47,3.47,0,0,1,.45-.17,3.88,3.88,0,0,0,1.08-.53s.06-.09.09-.13a.25.25,0,0,0-.26-.22c-.18,0-.36,0-.55,0a.36.36,0,0,1-.36-.34,1.93,1.93,0,0,1,0-.24c0-1.51,0-3,0-4.53,0-.22,0-.44,0-.66,0-.39.12-.52.5-.52,1.21,0,2.42,0,3.63,0h.85a4.87,4.87,0,0,1,.54,0,.39.39,0,0,1,.35.36,3.05,3.05,0,0,1,0,.43v4.89c0,.48-.07.54-.56.59A.62.62,0,0,0,122.61,55.3Zm-1.84-3.07h1.08a2.09,2.09,0,0,0,.36,0,.46.46,0,0,0,.3-.47.43.43,0,0,0-.32-.39.93.93,0,0,0-.24,0c-.8,0-1.6,0-2.4,0a1,1,0,0,0-.35,0,.41.41,0,0,0-.29.35.44.44,0,0,0,.25.44,1.41,1.41,0,0,0,.41.07Zm-.09,1.88H122a.45.45,0,0,0,.44-.27.47.47,0,0,0-.41-.69h-.3l-2,0a1.51,1.51,0,0,0-.3,0,.48.48,0,0,0,0,1h1.27Zm0-3.68h1a2.42,2.42,0,0,0,.47-.06.35.35,0,0,0,.24-.38.33.33,0,0,0-.25-.31,1.35,1.35,0,0,0-.29,0h-2.35c-.12,0-.24,0-.35.07A.35.35,0,0,0,119,50a.36.36,0,0,0,.27.35,3.31,3.31,0,0,0,.53.06Z" fill="#009fa8"/><path d="M186.72,0c.1,0,.22,0,.25.06.15.25.4.24.63.28.38.06.76.1,1.14.15a.82.82,0,0,1,.49.22.32.32,0,0,1,0,.52.56.56,0,0,1-.15.1.52.52,0,0,0-.24.51v1a.47.47,0,0,0,.46.53h4.48a1.4,1.4,0,0,0,.89-.29c.7-.53.72-.53,1.49-.11.49.27,1,.59,1.43.89a.75.75,0,0,1,.25.25.32.32,0,0,1-.21.52,3.61,3.61,0,0,0-1.47.65L194.19,6.4a1.92,1.92,0,0,1-.33.14c-.15,0-.31-.08-.28-.22a3.06,3.06,0,0,1,.2-.69c.14-.33.33-.65.49-1a.85.85,0,0,0,.09-.22.3.3,0,0,0-.26-.39H182.24c-.4,0-.8,0-1.2.06s-.53.14-.62.53a6.2,6.2,0,0,0-.19.83,2.58,2.58,0,0,1-.47,1.1,1.61,1.61,0,0,1-2,.52,1.11,1.11,0,0,1-.39-1.61,3,3,0,0,1,.47-.47c.26-.22.55-.4.81-.63a3.42,3.42,0,0,0,1.11-1.69c0-.11.08-.23.22-.25s.22.1.27.28,0,.2.05.3a.42.42,0,0,0,.42.36,2.17,2.17,0,0,0,.36,0h4.6c.59,0,.68-.11.68-.72s0-1.09,0-1.63A1.4,1.4,0,0,1,186.72,0Z" fill="#009fa8"/><path d="M35.17,45a4,4,0,0,1,2.08.46,2.64,2.64,0,0,1,1.56,2,.42.42,0,0,1-.39.56,1.46,1.46,0,0,1-.36,0c-.39,0-.45,0-.57-.38a2.08,2.08,0,0,0-.92-1.16,1.49,1.49,0,0,0-.73-.25c-.5,0-1,0-1.51,0a1.82,1.82,0,0,0-1.35.83,1.12,1.12,0,0,0,.53,1.66,6.43,6.43,0,0,0,1.5.49,6,6,0,0,1,.82.18c.24.06.46.14.7.19a3.7,3.7,0,0,1,1.86.93,2.32,2.32,0,0,1,.68,2.54,3.1,3.1,0,0,1-1.24,1.6,4.34,4.34,0,0,1-2.13.58A6.27,6.27,0,0,1,33.42,55a3,3,0,0,1-1.83-1.4,4.36,4.36,0,0,1-.37-.82,1.45,1.45,0,0,1,0-.47.45.45,0,0,1,.42-.51h.12c.49-.06.58,0,.73.47a2.35,2.35,0,0,0,1.66,1.61,4.28,4.28,0,0,0,2.67,0,1.63,1.63,0,0,0,1.09-1.39,1.29,1.29,0,0,0-.61-1.12,3.08,3.08,0,0,0-1.1-.47,18.31,18.31,0,0,1-1.94-.48,6.44,6.44,0,0,1-1.71-.73,2.15,2.15,0,0,1-1-1.88,2.47,2.47,0,0,1,1.42-2.29A3.72,3.72,0,0,1,34.78,45Z" fill="#009fa8"/><path d="M102.89,52.54h3.33c.72,0,.81.09.82.79v3.26a1.93,1.93,0,0,1,0,.24.36.36,0,0,1-.24.32.88.88,0,0,1-1-.27.68.68,0,0,0-.61-.3c-1.49,0-3,0-4.48,0a.77.77,0,0,0-.72.35.85.85,0,0,1-1,.18.35.35,0,0,1-.22-.33c0-.2,0-.4,0-.6,0-1,0-1.9,0-2.84,0-.65.11-.79.75-.8Zm0,2.87h0c.74,0,1.49,0,2.23,0,.45,0,.62-.15.66-.6a4.86,4.86,0,0,0,0-.54.47.47,0,0,0-.48-.51h-4.59a1.42,1.42,0,0,0-.36,0,.45.45,0,0,0-.44.48,4.28,4.28,0,0,0,0,.72.45.45,0,0,0,.39.41,2.17,2.17,0,0,0,.36,0C101.45,55.42,102.18,55.41,102.91,55.41Z" fill="#009fa8"/><path d="M82.57,51.8H80.4c-.38,0-.55.22-.49.6a2.06,2.06,0,0,0,1.39,1.75,1.9,1.9,0,0,0,2.11-.51,5.17,5.17,0,0,0,.39-.53.48.48,0,0,1,.51-.25,3.86,3.86,0,0,1,.59.12.31.31,0,0,1,.2.39.73.73,0,0,1-.09.22A3.44,3.44,0,0,1,83.61,55a1.42,1.42,0,0,1-.35.11,4.86,4.86,0,0,1-2.51,0,2.69,2.69,0,0,1-1.62-1.18,4.34,4.34,0,0,1-.57-3.07,4,4,0,0,1,.58-1.69,3,3,0,0,1,1.72-1.24,4,4,0,0,1,2,0,3.13,3.13,0,0,1,1.75,1.2,3.56,3.56,0,0,1,.58,1.57,4.68,4.68,0,0,1,.08.54c0,.39-.1.57-.49.6a3,3,0,0,1-.42,0H82.57Zm-.66-.95h.55c.32,0,.64,0,1,0s.51-.17.43-.6a1.91,1.91,0,0,0-2.47-1.39,2.55,2.55,0,0,0-.79.44A1.75,1.75,0,0,0,80,50.42a.33.33,0,0,0,.33.41,3,3,0,0,0,.42,0Z" fill="#009fa8"/><path d="M218.87,51.8h-1.94a2.63,2.63,0,0,0-.48.06.36.36,0,0,0-.3.45,2.36,2.36,0,0,0,.81,1.5,2.25,2.25,0,0,0,1.89.38,1.64,1.64,0,0,0,.94-.63c.14-.17.26-.36.4-.53a.43.43,0,0,1,.42-.18,4.68,4.68,0,0,1,.54.08.35.35,0,0,1,.23.52,3.44,3.44,0,0,1-1.45,1.5.85.85,0,0,1-.22.09,4.66,4.66,0,0,1-2.86,0,2.78,2.78,0,0,1-1.79-1.83,5.58,5.58,0,0,1-.28-1.9,5.26,5.26,0,0,1,.41-1.75,2.66,2.66,0,0,1,1-1.18,3.63,3.63,0,0,1,2.72-.54,2.88,2.88,0,0,1,1.84,1,3.06,3.06,0,0,1,.66,1.41,8.85,8.85,0,0,1,.09.9c0,.5-.09.62-.58.63h-2Zm-.61-.95h1.51c.31,0,.42-.15.39-.47a1.76,1.76,0,0,0-.59-1.09,1.56,1.56,0,0,0-1-.51,2.12,2.12,0,0,0-1.63.46,1.72,1.72,0,0,0-.69,1.23.3.3,0,0,0,.26.35,2.71,2.71,0,0,0,.41,0Z" fill="#009fa8"/><path d="M45.82,51.81H43.76c-.57,0-.7.23-.55.77A2.27,2.27,0,0,0,44.32,54a2,2,0,0,0,2.49-.49l.37-.48a.43.43,0,0,1,.42-.19c.16,0,.32,0,.48.07a.37.37,0,0,1,.27.59A3.18,3.18,0,0,1,45,55.23c-.18,0-.35,0-.53-.07a2.89,2.89,0,0,1-2.21-1.6,5,5,0,0,1-.36-1.21,4.52,4.52,0,0,1,.32-2.72,2.85,2.85,0,0,1,2-1.75,4.21,4.21,0,0,1,2.2.06A2.91,2.91,0,0,1,48,49.14a3.75,3.75,0,0,1,.58,2.18.4.4,0,0,1-.42.48,3,3,0,0,1-.42,0H45.82Zm-.59-1h1.56c.3,0,.43-.18.39-.48a1.86,1.86,0,0,0-.65-1.13,1.73,1.73,0,0,0-.78-.44,2.19,2.19,0,0,0-2.23.89,1.48,1.48,0,0,0-.25.79.33.33,0,0,0,.27.35,3,3,0,0,0,.42,0Z" fill="#009fa8"/><path d="M29.87,45.76c0,.29-.13.47-.36.47-.55,0-.8.25-1,.75a5.42,5.42,0,0,1-1,1.58.85.85,0,0,0-.17.25.29.29,0,0,0,.06.33,1.37,1.37,0,0,0,.24.18,6.8,6.8,0,0,0,1.73.69c.5.11.55.35.24.69l-.21.22A.42.42,0,0,1,29,51a8,8,0,0,1-2.11-.87,1.18,1.18,0,0,0-1.31,0c-.44.24-.91.42-1.37.62a.94.94,0,0,1-.29.06.61.61,0,0,1-.69-.8.56.56,0,0,1,.21-.27.61.61,0,0,1,.34-.12A4.13,4.13,0,0,0,25,49.22c.27-.1.29-.28.12-.53l-.7-1a.36.36,0,0,0-.07-.1.34.34,0,0,0-.6,0c-.17.2-.31.42-.48.62s-.49.34-.81.06a2,2,0,0,1-.25-.26.29.29,0,0,1,0-.39c.18-.22.36-.43.55-.64a3.84,3.84,0,0,0,.85-1.77c.13-.51.33-.66.94-.54a.55.55,0,0,1,.33.23.7.7,0,0,0,.68.29h3.87c.27,0,.36.09.43.34S29.85,45.7,29.87,45.76Zm-3.56,2.52a4.88,4.88,0,0,0,1.12-1.56.18.18,0,0,0,0-.12c0-.09-.06-.21-.13-.25a1,1,0,0,0-.41-.09H25.64l-.3,0c-.26.06-.33.19-.23.43a2.92,2.92,0,0,0,.19.44A2.36,2.36,0,0,0,26.31,48.28Z" fill="#009fa8"/><path d="M29.55,53.45c-.06.84-.09,1.53-.16,2.21a1.76,1.76,0,0,1-.64,1.25,1.31,1.31,0,0,1-.65.31,3.34,3.34,0,0,1-1.26,0c-.2,0-.4,0-.6-.06-.52-.06-.6-.15-.63-.69,0-.1,0-.2,0-.3a.31.31,0,0,1,.32-.3,3.78,3.78,0,0,1,.47.06c.32,0,.65.08,1,.07a.85.85,0,0,0,.92-.91c.05-.48.08-1,.11-1.45a1.5,1.5,0,0,0,0-.42.61.61,0,0,0-.68-.54H26.62a.52.52,0,0,0-.53.32,4.66,4.66,0,0,0-.26.61,8.94,8.94,0,0,1-.59,1.25,1.91,1.91,0,0,1-.28.4,6.39,6.39,0,0,1-1.88,1.5c-.2.1-.38.22-.58.32a.44.44,0,0,1-.59-.14l-.08-.09c-.36-.4-.25-.74.23-.92a4.6,4.6,0,0,0,2.12-1.54,7.59,7.59,0,0,0,.57-1,.78.78,0,0,0,.05-.35.34.34,0,0,0-.34-.35c-.1,0-.2,0-.31,0s-.52,0-.78,0c-.42,0-.58-.21-.55-.63a.43.43,0,0,1,.47-.44c.26,0,.52,0,.78,0h.37a.41.41,0,0,0,.41-.29,1.42,1.42,0,0,1,.1-.29.2.2,0,0,1,.12-.12,1.39,1.39,0,0,1,.83-.07.36.36,0,0,1,.18.14.9.9,0,0,1,.08.23.45.45,0,0,0,.52.39h1.57c.25,0,.49,0,.73,0,.44,0,.56.16.57.61Z" fill="#009fa8"/><path d="M153.13,55.28a10.12,10.12,0,0,1-1.37-.24,2.23,2.23,0,0,1-1.54-1.64.32.32,0,0,1,.21-.43,2.25,2.25,0,0,1,.35-.09c.4,0,.57,0,.72.4a1.66,1.66,0,0,0,.72.78.83.83,0,0,0,.34.13,11.63,11.63,0,0,0,1.32,0,1.45,1.45,0,0,0,.93-.63.66.66,0,0,0-.23-1,3.29,3.29,0,0,0-1.06-.43c-.31-.06-.62-.16-.93-.24a4.44,4.44,0,0,0-.52-.15,2.37,2.37,0,0,1-1.08-.52,1.52,1.52,0,0,1-.64-1.11,1.81,1.81,0,0,1,.38-1.47,2.29,2.29,0,0,1,1-.68,4.33,4.33,0,0,1,2.8,0,2.13,2.13,0,0,1,1.15.92.67.67,0,0,1,.09.74c-.15.25-.41.22-.65.22a.59.59,0,0,1-.51-.28,1.55,1.55,0,0,0-.28-.39,1.37,1.37,0,0,0-1.08-.45c-.2,0-.4,0-.6,0a1.34,1.34,0,0,0-.94.5.63.63,0,0,0,0,.78,1.19,1.19,0,0,0,.58.41c.59.15,1.18.29,1.75.47a6.3,6.3,0,0,1,1.29.51A1.79,1.79,0,0,1,155.9,54a2.35,2.35,0,0,1-1.75,1.15Z" fill="#009fa8"/><path d="M240.5,58h-1.44a1.81,1.81,0,0,1-.29-.79c0-.31.1-.45.42-.45h.66a.76.76,0,0,0,.56-.31,2.66,2.66,0,0,0,.53-1.2.7.7,0,0,0,0-.35c-.11-.33-.23-.65-.35-1-.19-.51-.39-1-.58-1.52l-.72-1.85c-.18-.45-.36-.89-.51-1.35a4.05,4.05,0,0,0-.35-.83c-.13-.22,0-.44.27-.48.73-.09,1,.07,1.21.78s.5,1.44.79,2.15c.22.51.37,1.06.56,1.58a3.36,3.36,0,0,0,.26.54.23.23,0,0,0,.37,0,3.7,3.7,0,0,0,.19-.5c.08-.22.14-.46.23-.68.2-.54.41-1.09.62-1.63s.41-1.09.62-1.63a1.33,1.33,0,0,1,.2-.37.51.51,0,0,1,.29-.2,1.4,1.4,0,0,1,.94.11c0,.21.09.38-.14.53a.72.72,0,0,0-.21.35c-.24.61-.48,1.23-.71,1.85-.15.37-.29.75-.44,1.12-.19.53-.38,1.06-.58,1.58s-.41,1.05-.62,1.57-.4,1-.59,1.45a2.6,2.6,0,0,1-.83,1.16A4,4,0,0,0,240.5,58Z" fill="#009fa8"/><path d="M147.35,51.56c0,1,0,1.94,0,2.91,0,.58-.21.75-.79.65a.41.41,0,0,1-.33-.24,2.21,2.21,0,0,0-.12-.27.21.21,0,0,0-.27-.09,1.14,1.14,0,0,0-.3.18,2.42,2.42,0,0,1-1.87.53,2.31,2.31,0,0,1-1.52-.51,1.77,1.77,0,0,1-.72-1.28c0-.64-.07-1.28-.08-1.93,0-1,0-1.93,0-2.9,0-.59.14-.71.71-.69a1.45,1.45,0,0,1,.3,0,.33.33,0,0,1,.28.34c0,.2,0,.4,0,.61v3.44a5.07,5.07,0,0,0,0,.55,1.35,1.35,0,0,0,1.39,1.3,1.9,1.9,0,0,0,1.43-.54,1.94,1.94,0,0,0,.55-1.19,4.35,4.35,0,0,0,0-.72V48.67c0-.7.12-.8.82-.75h.06a.4.4,0,0,1,.4.38c0,.14,0,.28,0,.42C147.35,49.67,147.35,50.62,147.35,51.56Z" fill="#009fa8"/><path d="M128.5,50.74v-3.5a3.94,3.94,0,0,0,0-.6.35.35,0,0,0-.32-.32,3,3,0,0,0-.42,0H125.6a.45.45,0,0,1-.43-.43.53.53,0,0,1,.39-.6,2.47,2.47,0,0,1,.54,0h6.6a.55.55,0,0,1,.56.53.47.47,0,0,1-.38.53,3,3,0,0,1-.42,0h-1.88c-.59,0-.7.12-.7.73v7.32c0,.67-.13.81-.81.78l-.24,0a.41.41,0,0,1-.35-.37,1.92,1.92,0,0,1,0-.24V50.74Z" fill="#009fa8"/><path d="M71.41,51.69c0,.31.09.75.16,1.18a1.87,1.87,0,0,0,1.66,1.36h.36A1.5,1.5,0,0,0,75,53.29c0-.11.09-.22.15-.33a.76.76,0,0,1,1.12-.3.28.28,0,0,1,.12.32,3,3,0,0,1-1,1.61,3.09,3.09,0,0,1-2.27.64l-.54-.08A2.73,2.73,0,0,1,70.73,54a3,3,0,0,1-.49-1.15,5.46,5.46,0,0,1,.1-2.92,2.8,2.8,0,0,1,1.12-1.53A3.63,3.63,0,0,1,74.81,48a2.33,2.33,0,0,1,1.43,1.55c.09.28,0,.46-.33.53l-.36,0a.49.49,0,0,1-.54-.31,2,2,0,0,0-.54-.71,1.29,1.29,0,0,0-.81-.34,1.94,1.94,0,0,0-2,1.14A3.68,3.68,0,0,0,71.44,51,5.77,5.77,0,0,0,71.41,51.69Z" fill="#009fa8"/><path d="M230.18,51.29a10,10,0,0,1,.15-1.2,2.62,2.62,0,0,1,1-1.65,3.68,3.68,0,0,1,3-.58,2.55,2.55,0,0,1,1.94,1.71.31.31,0,0,1-.21.47,1.59,1.59,0,0,1-.3.06c-.5.07-.69-.09-.83-.43a1.48,1.48,0,0,0-.49-.59,1.6,1.6,0,0,0-1.76-.15,2.15,2.15,0,0,0-1,1,1.12,1.12,0,0,0-.14.4,6.68,6.68,0,0,0,0,2.4,2,2,0,0,0,1.81,1.51,1.7,1.7,0,0,0,1.28-.42,2.2,2.2,0,0,0,.33-.41c.12-.19.2-.4.31-.59a.58.58,0,0,1,.24-.25,1.25,1.25,0,0,1,.83.06.31.31,0,0,1,.14.37,3.17,3.17,0,0,1-1.65,2,3.25,3.25,0,0,1-1.66.25q-.3,0-.6-.09a2.62,2.62,0,0,1-2-1.45A5.34,5.34,0,0,1,230.18,51.29Z" fill="#009fa8"/><path d="M196,49.36h-3.44a.75.75,0,0,1-.56-.18.55.55,0,0,1-.2-.42c0-.48,0-1,0-1.45s.15-.49.52-.53h7.37a.44.44,0,0,1,.41.38,1,1,0,0,1,0,.24c0,.44,0,.88,0,1.32s-.21.62-.64.62c-.61,0-1.21,0-1.81,0H196Zm2.29-.84a2.7,2.7,0,0,0,.49-.12.4.4,0,0,0,.08-.69,1.13,1.13,0,0,0-1,0,.38.38,0,0,0,0,.65A2,2,0,0,0,198.29,48.52Zm-4.72-1a3.2,3.2,0,0,0-.42.1.35.35,0,0,0-.26.36.36.36,0,0,0,.24.38,1,1,0,0,0,.88,0,.4.4,0,0,0,.23-.39.37.37,0,0,0-.26-.37C193.85,47.61,193.71,47.59,193.57,47.56Zm2.33.94a2.48,2.48,0,0,0,.39-.1.36.36,0,0,0,.24-.38.36.36,0,0,0-.27-.36,1.51,1.51,0,0,0-.47-.09.44.44,0,0,0-.46.45C195.33,48.32,195.52,48.5,195.9,48.5Z" fill="#009fa8"/><path d="M97.33,52.32V56.6a1.92,1.92,0,0,1,0,.24.4.4,0,0,1-.4.38h-.3a.47.47,0,0,1-.5-.54c0-.16,0-.33,0-.49V51.43c0-.11,0-.21,0-.31,0-.34-.08-.43-.44-.4a1.41,1.41,0,0,1-.89-.3.31.31,0,0,1-.1-.38.88.88,0,0,1,.12-.21,13,13,0,0,0,1.28-2.38c.26-.61.39-1.26.63-1.88a3.4,3.4,0,0,0,.12-.65.37.37,0,0,1,.38-.32,1,1,0,0,1,.24,0c.5.06.63.22.5.73s-.33,1.28-.53,1.91a3,3,0,0,0-.11.83v4.23Z" fill="#009fa8"/><path d="M60.06,53.11a.86.86,0,0,0,.52-.64c.27-.72.53-1.44.78-2.15s.39-1.14.59-1.71a1.68,1.68,0,0,1,.16-.39.75.75,0,0,1,.38-.26,2.49,2.49,0,0,1,.72,0,.25.25,0,0,1,.19.37l-1,2.4c-.2.52-.38,1-.58,1.58s-.33.9-.5,1.35c-.12.3-.24.6-.35.9a.72.72,0,0,1-.76.56h-.3a.6.6,0,0,1-.57-.45c-.23-.62-.49-1.23-.73-1.85s-.37-1.06-.57-1.58-.4-1-.6-1.51c-.06-.17-.13-.34-.2-.51L57,48.57a2,2,0,0,1-.11-.28.28.28,0,0,1,.25-.35,4.85,4.85,0,0,1,.66,0,.44.44,0,0,1,.37.28,6.62,6.62,0,0,1,.3.66q.18.43.33.9c.2.54.4,1.09.59,1.64l.17.45c.08.25.17.5.23.75A.78.78,0,0,0,60.06,53.11Z" fill="#009fa8"/><path d="M159.22,51.46V49.71c0-.14,0-.28,0-.42a.42.42,0,0,0-.33-.45l-.23-.06a.39.39,0,0,1-.3-.46.31.31,0,0,1,.22-.32l.17-.06c.48-.14.49-.16.48-.67v-.6a.81.81,0,0,1,.41-.76,4.34,4.34,0,0,1,.46-.28.27.27,0,0,1,.41.21,2.17,2.17,0,0,1,0,.36c0,.36,0,.73,0,1.09s.1.59.58.63h.31a.46.46,0,0,1,.38.41.44.44,0,0,1-.32.45,3.93,3.93,0,0,1-.48.06c-.32,0-.41.13-.44.46,0,.18,0,.36,0,.54,0,1.08,0,2.17,0,3.26,0,.54.18.84.71.94a.78.78,0,0,1,.62.42.43.43,0,0,1-.29.66A2.82,2.82,0,0,1,160,55a.9.9,0,0,1-.39-.36,1.89,1.89,0,0,1-.34-1.08l-.06-2.11Z" fill="#009fa8"/><path d="M188.89,50.9V45.41a3.85,3.85,0,0,1,0-.48.4.4,0,0,1,.38-.39,1.09,1.09,0,0,1,.36,0,.4.4,0,0,1,.35.37c0,.14,0,.28,0,.42,0,1,0,1.93,0,2.9,0,2.69,0,5.39,0,8.08a5.06,5.06,0,0,1,0,.55.38.38,0,0,1-.35.35,1.19,1.19,0,0,1-.42,0,.38.38,0,0,1-.31-.33,3.85,3.85,0,0,1,0-.48Z" fill="#009fa8"/><path d="M118.06,45h5.07c.56,0,.7.13.69.66a12.81,12.81,0,0,1-.11,1.39,2.83,2.83,0,0,1-.21.62,1,1,0,0,1-1,.68,3.65,3.65,0,0,1-1.69-.36.41.41,0,0,1-.27-.48c.07-.32.23-.48.53-.47s.4,0,.6.06a2.59,2.59,0,0,0,.48,0,.53.53,0,0,0,.53-.49.45.45,0,0,0-.42-.6,7.88,7.88,0,0,0-1.19,0,.79.79,0,0,0-.63.41A5.94,5.94,0,0,1,119,48.07c-.36.26-.46.27-.78,0a.34.34,0,0,1-.09-.08c-.24-.23-.23-.37,0-.6.1-.09.22-.17.33-.26l.47-.38c.15-.13.33-.29.25-.51s-.36-.22-.58-.2-.47.09-.61-.13A.66.66,0,0,1,118.06,45Z" fill="#009fa8"/><path d="M225.69,52.74v1.75a1.46,1.46,0,0,1,0,.3.53.53,0,0,1-.11.21,1.08,1.08,0,0,1-1,0,.41.41,0,0,1-.13-.26,1.43,1.43,0,0,1,0-.36V48.6c0-.1,0-.2,0-.3a.39.39,0,0,1,.39-.38c.36,0,.68,0,.85.4.08.18.26.18.4,0a1.45,1.45,0,0,1,2-.35c.24.11.27.29.17.69s-.2.47-.45.46-.33,0-.49,0a2.88,2.88,0,0,0-.59,0,.87.87,0,0,0-.6.47,3.06,3.06,0,0,0-.4,1.44v1.69Z" fill="#009fa8"/><path d="M135.23,51.53c0-1,0-2,0-3a1,1,0,0,1,0-.3.36.36,0,0,1,.13-.19.89.89,0,0,1,.81-.05c.17.06.19.24.25.39s.24.24.41.05.09-.13.15-.19a1,1,0,0,1,.21-.2,1.71,1.71,0,0,1,1.83,0,.33.33,0,0,1,.14.37l-.1.28c-.19.48-.26.52-.76.43a3,3,0,0,0-.42,0,1.09,1.09,0,0,0-1.12.83,5.47,5.47,0,0,0-.32,1.83c0,.93,0,1.85,0,2.78v.18a.41.41,0,0,1-.43.41,2.16,2.16,0,0,1-.36,0c-.33,0-.46-.17-.47-.51,0-.5,0-1,0-1.51s0-1,0-1.57Z" fill="#009fa8"/><path d="M52.83,48.54a2.84,2.84,0,0,0,.28-.25,1.56,1.56,0,0,1,2-.28.33.33,0,0,1,.17.36c0,.06,0,.12,0,.18-.15.59-.22.63-.83.56l-.36,0a1.11,1.11,0,0,0-1.12.76,4.17,4.17,0,0,0-.28,1.47c0,1,0,1.9,0,2.84,0,.1,0,.2,0,.31s0,.47-.19.59a1,1,0,0,1-.82,0,.44.44,0,0,1-.22-.26,1.46,1.46,0,0,1,0-.42V48.64a2.17,2.17,0,0,1,0-.36.38.38,0,0,1,.1-.21.8.8,0,0,1,1,.07C52.65,48.25,52.72,48.37,52.83,48.54Z" fill="#009fa8"/><path d="M193,57.24c-.22,0-.44,0-.66,0a.63.63,0,0,1-.62-.49.38.38,0,0,1,.3-.5,3.93,3.93,0,0,1,.48-.06,2.61,2.61,0,0,0,.48,0,.57.57,0,0,0,.52-.57,2.57,2.57,0,0,0,0-.48.39.39,0,0,0-.45-.39,3.39,3.39,0,0,0-.51.17,2,2,0,0,1-.83.15.49.49,0,0,1-.51-.48.47.47,0,0,1,.37-.6,2.73,2.73,0,0,1,.41-.1,5.81,5.81,0,0,0,2.13-.81,5.17,5.17,0,0,0,.53-.39.38.38,0,0,1,.45,0,1.24,1.24,0,0,1,.26.25.44.44,0,0,1,0,.65,1.82,1.82,0,0,1-.38.29.83.83,0,0,0-.42.76c0,.3,0,.6,0,.9a.37.37,0,0,0,.49.38c.22-.06.42-.15.63-.23a.44.44,0,0,1,.65.22,2.58,2.58,0,0,1,.22.44.3.3,0,0,1-.19.39l-.11,0a16.89,16.89,0,0,1-3.16.49Z" fill="#009fa8"/><path d="M102.78,47.82H98.67c-.2,0-.41,0-.51-.22a.81.81,0,0,1,0-.81.43.43,0,0,1,.24-.15,2.64,2.64,0,0,1,.49,0h7.74a2.81,2.81,0,0,1,.65.07.37.37,0,0,1,.3.4,1.84,1.84,0,0,1-.06.41.42.42,0,0,1-.35.3l-.3,0Z" fill="#009fa8"/><path d="M166.69,11.63a5.41,5.41,0,0,1,.64-1.09,2.94,2.94,0,0,0,.3-.52.51.51,0,0,0-.19-.73L167,9c-.09-.08-.2-.18-.14-.31s.23-.12.38-.09l.53.11c.36.07.52,0,.6-.39,0-.14,0-.28,0-.42.06-.39.22-.55.6-.53a4.13,4.13,0,0,1,1.46.33.22.22,0,0,1,.08.35l-.72.89a1.38,1.38,0,0,0-.17.25.41.41,0,0,0,.08.5l.35.33a1.22,1.22,0,0,1,.36,1.21.79.79,0,0,1-.63.65.77.77,0,0,1-.87-.27,4.06,4.06,0,0,1-.25-.41c-.2-.32-.43-.36-.76-.14s-.55.4-.84.58C167,11.64,166.9,11.61,166.69,11.63Z" fill="#009fa8"/><path d="M67.29,51.51v2.77c0,.14,0,.28,0,.42a.41.41,0,0,1-.37.41,1.94,1.94,0,0,1-.24,0c-.47,0-.73-.12-.72-.7,0-2,0-3.9,0-5.85a1.92,1.92,0,0,1,0-.24.4.4,0,0,1,.37-.4,2.4,2.4,0,0,1,.6,0c.23,0,.33.18.35.42s0,.32,0,.49Z" fill="#009fa8"/><path d="M99.08,51.58a.88.88,0,0,1-.1-.26c-.1-.64.1-.86.71-.85,2.07,0,4.15,0,6.23,0h.24a.4.4,0,0,1,.4.38c.07.77-.07.85-.7.85H99.69A1,1,0,0,1,99.08,51.58Z" fill="#009fa8"/><path d="M195.92,46.23h-3.81a1,1,0,0,1-.3,0,.38.38,0,0,1-.21-.18,1.24,1.24,0,0,1,0-.47.36.36,0,0,1,.21-.19,1.08,1.08,0,0,1,.36,0h2.18a3,3,0,0,0,.42,0,.46.46,0,0,0,.43-.36.14.14,0,0,1,0-.06c.18-.46.41-.58.88-.45.19.05.35.15.37.35.07.47.37.55.79.54h2.29a3.09,3.09,0,0,1,.43,0,.45.45,0,0,1,.33.64.33.33,0,0,1-.28.2l-.48,0Z" fill="#009fa8"/><path d="M102.84,48.49h3.08l.3,0a.33.33,0,0,1,.3.26,2,2,0,0,1,0,.48.34.34,0,0,1-.34.35,3.09,3.09,0,0,1-.43,0H99.74a3,3,0,0,1-.42,0,.4.4,0,0,1-.36-.41,1.54,1.54,0,0,1,0-.3c.06-.3.14-.37.45-.38h3.39Z" fill="#009fa8"/><path d="M136,16.08a4,4,0,0,1-.48,2.06,1.53,1.53,0,0,1-1.93.78.82.82,0,0,1-.51-.47,1.21,1.21,0,0,1,.39-1.51c.2-.15.43-.29.63-.46a2.89,2.89,0,0,0,1.1-1.81.45.45,0,0,1,.08-.22.32.32,0,0,1,.17-.14.24.24,0,0,1,.19.11,3.4,3.4,0,0,1,.25.67C135.9,15.47,135.92,15.85,136,16.08Z" fill="#009fa8"/><path d="M198.83,52.88a.83.83,0,0,1,.54.36.35.35,0,0,1,0,.49c-.2.2-.42.37-.63.56a4.64,4.64,0,0,0-.4.36.31.31,0,0,0,0,.44,1.72,1.72,0,0,0,.31.29,4.7,4.7,0,0,0,1.08.65,2.49,2.49,0,0,1,.43.22.33.33,0,0,1,.07.56A2.08,2.08,0,0,1,200,57a.49.49,0,0,1-.61.09,6.35,6.35,0,0,1-2.78-2.5c-.23-.38-.42-.78-.62-1.18a.24.24,0,0,1,.11-.35,3.07,3.07,0,0,1,.5-.2.32.32,0,0,1,.4.19,3.68,3.68,0,0,0,.23.49.39.39,0,0,0,.62.1c.19-.15.36-.32.55-.47S198.7,53,198.83,52.88Z" fill="#009fa8"/><path d="M102.88,45.86h-3a2.53,2.53,0,0,1-.48,0,.43.43,0,0,1-.34-.44c0-.41.16-.66.62-.66h5.39l.84,0c.37,0,.52.12.57.47a1.09,1.09,0,0,1,0,.36.36.36,0,0,1-.37.33h-3.27Z" fill="#009fa8"/><path d="M139.1,18.07h-.17a1,1,0,0,1-1-1,1.86,1.86,0,0,1,.05-.66,2.73,2.73,0,0,0-.36-2c0-.09-.11-.17-.15-.26a.21.21,0,0,1,.17-.31,1.24,1.24,0,0,1,.52.09,5.55,5.55,0,0,1,1.75,1.37,3.39,3.39,0,0,1,.53,1.2.76.76,0,0,1-.06.47,3.28,3.28,0,0,1-.37.62A.89.89,0,0,1,139.1,18.07Z" fill="#009fa8"/><path d="M178.38,53.23l.41.14a.54.54,0,0,1,.38.5.5.5,0,0,0,.33.52.79.79,0,0,0,.7-.07.62.62,0,0,0,.26-.45.46.46,0,0,1,.41-.39c.39-.07.55.1.55.44s0,.68,0,1-.11.48-.46.5h-1a2.52,2.52,0,0,0-.48,0,.44.44,0,0,0-.37.48c0,.22,0,.44,0,.66,0,.42-.16.58-.58.6h-.19a.4.4,0,0,1-.37-.33,1,1,0,0,1,0-.3V54C178,53.6,178,53.58,178.38,53.23Z" fill="#009fa8"/><path d="M141.05,13.54a4.19,4.19,0,0,1,2.57,1.17,2,2,0,0,1,.5,1.56,1.18,1.18,0,0,1-1.11,1,1.12,1.12,0,0,1-1.11-1A4.18,4.18,0,0,0,141,14.1c-.06-.08-.13-.16-.18-.24s0-.32.19-.32Z" fill="#009fa8"/><path d="M146.44,16c-.59.1-1-.43-1.16-.87l-.3-.72a1.93,1.93,0,0,0-.78-.89c-.12-.08-.25-.16-.21-.33s.17-.24.38-.22a8.7,8.7,0,0,1,1.44.16,2.55,2.55,0,0,1,1.36.85,1.65,1.65,0,0,1,.1,1.66C147.1,15.91,146.91,16,146.44,16Z" fill="#009fa8"/><path d="M188.62,49.14c-.07.65-.13,1.31-.2,2a.56.56,0,0,1-.65.55.37.37,0,0,1-.35-.28,1.52,1.52,0,0,1-.06-.47,23.3,23.3,0,0,0,.08-2.89.49.49,0,0,1,0-.12c0-.28.25-.4.65-.39s.55.15.55.42,0,.8-.05,1.2Z" fill="#009fa8"/><path d="M191.55,49a4.15,4.15,0,0,0,0,1.27,2,2,0,0,1,0,.54.43.43,0,0,1-.39.39.52.52,0,0,1-.58-.32,1.15,1.15,0,0,1-.08-.29l-.27-2.51a1.09,1.09,0,0,1,0-.18.35.35,0,0,1,.28-.35,2.44,2.44,0,0,1,.54,0,.42.42,0,0,1,.37.35C191.46,48.27,191.5,48.65,191.55,49Z" fill="#009fa8"/><path d="M195.33,50.89c0-.2,0-.4,0-.6a1,1,0,0,1,0-.24c.05-.22.12-.43.37-.5a.62.62,0,0,1,.59.35,1.11,1.11,0,0,1,.15.8,1.79,1.79,0,0,0,0,.89c.06.22,0,.33-.21.44a.79.79,0,0,1-.28.1c-.44.09-.65-.07-.67-.52,0-.24,0-.48,0-.72Z" fill="#009fa8"/><path d="M198.43,50.82h-1a.8.8,0,0,1-.55-.2.24.24,0,0,1,0-.37.83.83,0,0,1,.59-.26h2.11a.36.36,0,0,1,.41.28.38.38,0,0,1-.38.54c-.38,0-.76,0-1.14,0Z" fill="#009fa8"/><path d="M198.41,52.3h-.9a2.09,2.09,0,0,1-.36,0,.49.49,0,0,1-.32-.41c0-.12.1-.28.29-.34a1.05,1.05,0,0,1,.34-.08h2a.57.57,0,0,1,.18,0,.3.3,0,0,1,.24.24c.09.39-.09.62-.5.62h-1Z" fill="#009fa8"/><path d="M193.33,52.32h-1a.44.44,0,0,1-.47-.51.37.37,0,0,1,.27-.35l.3,0h1.87q.53,0,.51.39a.45.45,0,0,1-.49.48h-1Z" fill="#009fa8"/><path d="M193.37,50.8h-1.09a.41.41,0,0,1-.36-.41.44.44,0,0,1,.37-.41h2.11a.43.43,0,0,1,.46.31.38.38,0,0,1-.23.48,1.12,1.12,0,0,1-.36,0C194,50.81,193.67,50.8,193.37,50.8Z" fill="#009fa8"/><path d="M67.29,46a1.38,1.38,0,0,1-.05.28c-.11.31-.38.31-.65.31s-.51-.09-.57-.32a1.48,1.48,0,0,1,0-.47.54.54,0,0,1,.6-.59h.12c.43,0,.58.17.6.59Z" fill="#009fa8"/><path d="M146.92,28.2a3.76,3.76,0,0,1,3.22,1.8,1.13,1.13,0,0,1,.13.27A3,3,0,0,1,148,34.14a4.51,4.51,0,0,1-2.55-.09A3.16,3.16,0,0,1,144,33a3.05,3.05,0,0,1-.63-1.48,2.35,2.35,0,0,1,.38-1.67,3.41,3.41,0,0,1,1.64-1.37A3.44,3.44,0,0,1,146.92,28.2Z" fill="#009fa8"/><path d="M199.35,28.19a3.57,3.57,0,0,1,2.87,1.43,2.5,2.5,0,0,1,.43,2.49A3,3,0,0,1,200.89,34a4.17,4.17,0,0,1-2.55.21,3.49,3.49,0,0,1-1.82-1,2.48,2.48,0,0,1-.76-1.78v-.06a2.15,2.15,0,0,1,.5-1.7,2.76,2.76,0,0,1,1.4-1.09l.17-.06A2.76,2.76,0,0,1,199.35,28.19Z" fill="#009fa8"/><path d="M116.51,31.22V29c0-.58.16-.7.74-.69h.66a5.64,5.64,0,0,1,1.73.23,3,3,0,0,1,1.92,1.63,2.86,2.86,0,0,1,.2,1.06,2.72,2.72,0,0,1-2.3,2.88,12.19,12.19,0,0,1-2.41.14.49.49,0,0,1-.53-.48c0-.14,0-.28,0-.42Z" fill="#009fa8"/><path d="M154.61,29.78c0-.33,0-.65,0-1s.14-.54.55-.57a5.54,5.54,0,0,1,1.67.15c.16,0,.31.11.47.14a1.33,1.33,0,0,1,.92,1.7,1.24,1.24,0,0,1-.8.85,5.74,5.74,0,0,1-2.25.35c-.32,0-.51-.11-.54-.51s0-.76,0-1.14Z" fill="#009fa8"/><path d="M87.13,29.78c0-.34,0-.68,0-1s.13-.51.5-.52a6.5,6.5,0,0,1,2.32.34,1.06,1.06,0,0,1,.64.67,1.32,1.32,0,0,1-.46,1.7,1.27,1.27,0,0,1-.37.18,6.57,6.57,0,0,1-2.2.34.33.33,0,0,1-.38-.3,2.52,2.52,0,0,1-.06-.48c0-.3,0-.6,0-.9Z" fill="#009fa8"/><path d="M162.41,29.77V29a1.47,1.47,0,0,1,0-.36.41.41,0,0,1,.46-.39,5.61,5.61,0,0,1,1.91.2,2.35,2.35,0,0,0,.35.11c.82.11,1.14,1.47.56,2.13a1.36,1.36,0,0,1-.63.45,7.07,7.07,0,0,1-2.14.32c-.34,0-.44-.08-.49-.42s-.06-.84-.08-1.26Z" fill="#009fa8"/><path d="M230.09,31.84c-.28,0-.56,0-.84,0s-.37-.14-.3-.44A2,2,0,0,1,229,31l.84-1.85a.22.22,0,0,1,.39,0,4.39,4.39,0,0,1,.27.47c.25.56.5,1.13.74,1.7a1.17,1.17,0,0,0,.05.11c.08.25,0,.4-.28.41s-.64,0-1,0Z" fill="#009fa8"/><path d="M80.61,31.83c-.3,0-.6,0-.9,0s-.37-.15-.27-.45a3.17,3.17,0,0,1,.14-.4c.26-.58.53-1.16.8-1.74a.61.61,0,0,1,.1-.14.21.21,0,0,1,.27,0l.08.09.9,2,.06.17c.09.32,0,.43-.34.46s-.56,0-.84,0Z" fill="#009fa8"/><path d="M136.67,29.58c0-.28,0-.56,0-.84s.14-.47.43-.49a3.72,3.72,0,0,1,2,.3,1.22,1.22,0,0,1,.33,1.93,1.11,1.11,0,0,1-.39.26,4.91,4.91,0,0,1-1.78.27c-.43,0-.57-.15-.59-.59,0-.28,0-.56,0-.84Z" fill="#009fa8"/><path d="M213.5,29.55c0-.28,0-.56,0-.84s.13-.43.39-.45a3.85,3.85,0,0,1,2.12.3,1.26,1.26,0,0,1,.61,1.32,1.14,1.14,0,0,1-.9.94,6.66,6.66,0,0,1-1.66.19c-.41,0-.54-.15-.56-.55s0-.61,0-.91Z" fill="#009fa8"/></svg>